<?xml version="1.0" standalone="no"?>
<!DOCTYPE svg PUBLIC "-//W3C//DTD SVG 1.1//EN" "http://www.w3.org/Graphics/SVG/1.1/DTD/svg11.dtd" >
<svg>
<metadata>
Created by FontForge 20110222 at Fri Nov 29 21:25:54 2013
 By Orthosie Webmaster
 (c) Copyright 1997 International Typeface Corporation. All rights reserved.
</metadata>
<defs>
<font id="FrizQuadrataSCTT" horiz-adv-x="521" >
  <font-face 
    font-family="Friz Quadrata SC TT"
    font-weight="400"
    font-stretch="normal"
    units-per-em="1000"
    panose-1="0 0 4 0 0 0 0 0 0 0"
    ascent="800"
    descent="-200"
    x-height="504"
    cap-height="695"
    bbox="-139 -249 1108 965"
    underline-thickness="75"
    underline-position="-71"
    unicode-range="U+0020-F002"
  />
<missing-glyph horiz-adv-x="500" 
d="M63 0v757h375v-757h-375zM125 63h250v632h-250v-632z" />
    <glyph glyph-name=".notdef" horiz-adv-x="500" 
d="M63 0v757h375v-757h-375zM125 63h250v632h-250v-632z" />
    <glyph glyph-name=".null" horiz-adv-x="0" 
 />
    <glyph glyph-name="glyph2" horiz-adv-x="261" 
 />
    <glyph glyph-name="space" unicode=" " horiz-adv-x="261" 
 />
    <glyph glyph-name="exclam" unicode="!" horiz-adv-x="345" 
d="M227 512l-23 -375h-67l-17 291q-2 43 -8 56t-31 28h146zM229 41q0 -23 -16.5 -39.5t-39.5 -16.5t-39.5 16.5t-16.5 39.5q0 24 16.5 40t40.5 16q23 0 39 -16.5t16 -39.5z" />
    <glyph glyph-name="quotedbl" unicode="&#x22;" horiz-adv-x="640" 
d="M454 695l-17 -279h-72l-16 279h105zM290 695l-16 -279h-72l-17 279h105z" />
    <glyph glyph-name="numbersign" unicode="#" horiz-adv-x="640" 
d="M627 488l-9 -61h-150l-24 -164h149l-10 -61h-148l-32 -202h-66l33 202h-146l-31 -202h-65l31 202h-146l10 61h145l26 164h-146l9 61h146l33 206h65l-32 -206h144l33 206h64l-31 -206h148zM404 427h-145l-25 -164h145z" />
    <glyph glyph-name="dollar" unicode="$" horiz-adv-x="556" 
d="M518 200q0 -78 -54 -128.5t-154 -67.5v-94h-57v93q-106 0 -188 13v124q84 -66 188 -67v262q-80 34 -117 58q-80 53 -80 132q0 69 53 114t144 54v84h57v-84q70 -3 134 -24v-111q-52 52 -134 59v-194q6 -4 25 -13q64 -31 82.5 -42.5t42.5 -34.5q58 -56 58 -133zM253 444
v173q-38 -4 -59 -16q-39 -22 -39 -64q0 -27 21 -47t77 -46zM418 193q0 45 -41 76q-23 17 -67 39v-228q108 32 108 113z" />
    <glyph glyph-name="percent" unicode="%" horiz-adv-x="738" 
d="M335 540q0 -69 -43.5 -116.5t-106.5 -47.5q-65 0 -107.5 45.5t-42.5 115.5q0 72 43.5 118.5t109.5 46.5q62 0 104.5 -47t42.5 -115zM569 695l-341 -695h-63l342 695h62zM704 156q0 -69 -43.5 -116.5t-106.5 -47.5q-65 0 -107.5 45.5t-42.5 115.5q0 71 43.5 118t109.5 47
q62 0 104.5 -47t42.5 -115zM254 538q0 109 -70 109q-68 0 -68 -110q0 -105 69 -105t69 106zM623 154q0 109 -70 109q-67 0 -67 -109q0 -106 69 -106q68 0 68 106z" />
    <glyph glyph-name="ampersand" unicode="&#x26;" horiz-adv-x="702" 
d="M749 1q-91 -3 -119 -3q-47 0 -84.5 16.5t-92.5 60.5q-64 -85 -177 -85q-89 0 -143 41.5t-54 108.5q0 44 25.5 80.5t87.5 80.5q-65 60 -65 107q0 44 40.5 75t98.5 31q55 0 91 -30t36 -76q0 -31 -15 -54t-56 -58q158 -137 241 -194.5t186 -100.5zM314 416q0 41 -53 41
q-50 0 -50 -38q0 -28 55 -72q48 33 48 69zM409 109q-101 80 -159 139q-70 -47 -70 -104q0 -40 31 -65.5t80 -25.5q70 0 118 56z" />
    <glyph glyph-name="quotesingle" unicode="'" horiz-adv-x="426" 
d="M266 695l-16 -279h-72l-17 279h105z" />
    <glyph glyph-name="parenleft" unicode="(" horiz-adv-x="322" 
d="M283 -159h-81q-143 215 -143 429q0 152 66 291q22 47 77 134h81q-132 -206 -132 -428q0 -244 132 -426z" />
    <glyph glyph-name="parenright" unicode=")" horiz-adv-x="325" 
d="M266 270q0 -214 -144 -429h-84q133 182 133 426q0 223 -133 428h84q55 -85 78 -134q66 -139 66 -291z" />
    <glyph glyph-name="asterisk" unicode="*" horiz-adv-x="640" 
d="M498 536q-11 1 -23 1q-39 0 -86 -15l-25 -8l17 -19q35 -39 44 -48q17 -15 40 -24l-84 -61q-9 52 -45 100l-16 21l-15 -21q-35 -49 -44 -100l-82 61q29 10 43 20q18 14 44 50l15 21l-28 9q-34 11 -75 11q-14 0 -37 -5l34 98q34 -35 95 -55l25 -8v27q0 56 -29 104h105
q-25 -40 -25 -104v-27l25 8q45 14 63 27q14 9 31 32z" />
    <glyph glyph-name="plus" unicode="+" horiz-adv-x="640" 
d="M551 315h-195v-199h-72v199h-195v72h195v200h72v-200h195v-72z" />
    <glyph glyph-name="comma" unicode="," horiz-adv-x="257" 
d="M193 49q0 -71 -71 -140q-19 -18 -32 -18q-8 0 -40 3q78 71 78 98q0 7 -22 13q-42 11 -42 56q0 25 18.5 43t44.5 18q29 0 47.5 -20.5t18.5 -52.5z" />
    <glyph glyph-name="hyphen" unicode="-" horiz-adv-x="393" 
d="M359 318l-57 -76q-14 -19 -45 -19h-126q-58 0 -96 -13l60 75q14 18 46 18h112q68 0 106 15z" />
    <glyph glyph-name="hyphen" unicode="&#x2010;" horiz-adv-x="393" 
d="M359 318l-57 -76q-14 -19 -45 -19h-126q-58 0 -96 -13l60 75q14 18 46 18h112q68 0 106 15z" />
    <glyph glyph-name="period" unicode="." horiz-adv-x="257" 
d="M194 57q0 -28 -19 -47t-46 -19q-28 0 -47 19t-19 47q0 27 19.5 46t47.5 19q26 0 45 -19.5t19 -45.5z" />
    <glyph glyph-name="slash" unicode="/" horiz-adv-x="430" 
d="M392 695l-330 -840h-79l333 840h76z" />
    <glyph glyph-name="zero" unicode="0" horiz-adv-x="627" 
d="M596 247q0 -109 -83.5 -185t-204.5 -76q-118 0 -197.5 73t-79.5 182q0 112 83 186t210 74q115 0 193.5 -73.5t78.5 -180.5zM491 235q0 87 -51.5 141.5t-133.5 54.5q-74 0 -122.5 -50t-48.5 -127q0 -84 52.5 -141t130.5 -57q77 0 125 49.5t48 129.5z" />
    <glyph glyph-name="one" unicode="1" horiz-adv-x="284" 
d="M253 0h-216q44 27 55 58q8 21 8 79v262h-86q140 61 187 126v-388q0 -71 18 -101q13 -22 34 -36z" />
    <glyph glyph-name="two" unicode="2" horiz-adv-x="470" 
d="M407 0h-421q23 22 112 118q6 7 71 77q73 79 92 107t19 56q0 34 -25 55.5t-66 21.5q-64 0 -140 -42l61 91q48 24 111 24q73 0 119 -36.5t46 -93.5t-63 -132q-31 -37 -139 -145q-6 -7 -20 -20q54 -10 115 -10q74 0 128 35v-106z" />
    <glyph glyph-name="three" unicode="3" horiz-adv-x="486" 
d="M435 27q0 -136 -143 -207q-112 -56 -270 -56q-27 0 -49 1l38 63q147 0 232.5 51t85.5 139q0 62 -48.5 101t-124.5 39q-11 0 -59 -4v69h22q81 0 131 32.5t50 85.5q0 41 -31 65.5t-84 24.5q-81 0 -162 -39l53 85q58 24 124 24q88 0 143 -41.5t55 -107.5q0 -57 -41 -100
q-31 -32 -93 -51q79 -16 120 -53q51 -46 51 -121z" />
    <glyph glyph-name="four" unicode="4" horiz-adv-x="604" 
d="M604 112l-63 -113h-110v-51q0 -59 -18 -96t-76 -101v248h-330l284 502h140v-430q100 0 173 41zM341 452l-207 -370q58 -13 167 -13h38z" />
    <glyph glyph-name="five" unicode="5" horiz-adv-x="502" 
d="M467 33q0 -72 -43.5 -133t-119.5 -95q-104 -46 -273 -53l42 71q70 0 121 14q168 47 168 183q0 68 -43.5 108.5t-117.5 40.5q-58 0 -133 -28v346h347v-118q-23 29 -49 39q-22 8 -65 8q-72 0 -135 -9v-178q49 13 83 13q93 0 155.5 -60t62.5 -149z" />
    <glyph glyph-name="six" unicode="6" horiz-adv-x="611" 
d="M583 238q0 -106 -79 -179t-194 -73q-118 0 -197 83.5t-79 208.5q0 107 57.5 199t162.5 154q102 59 246 86l-41 -65q-143 -35 -229.5 -135.5t-86.5 -232.5q0 -98 52 -163t130 -65q68 0 111 45.5t43 118.5q0 76 -43.5 124t-112.5 48q-66 0 -125 -34l41 64q56 42 124 42
q94 0 157 -65t63 -161z" />
    <glyph glyph-name="seven" unicode="7" horiz-adv-x="539" 
d="M518 487l-221 -477q-9 -18 -25 -54q-65 -159 -210 -205l310 657q-81 7 -156 7q-115 0 -195 -50l68 122h429z" />
    <glyph glyph-name="eight" unicode="8" horiz-adv-x="623" 
d="M591 185q0 -88 -80 -143.5t-207 -55.5q-122 0 -197.5 52t-75.5 137q0 73 60 118q35 26 101 58q-130 48 -130 156q0 76 69.5 127t173.5 51q88 0 157 -40q84 -49 84 -133q0 -103 -125 -150q69 -23 109 -53q61 -45 61 -124zM448 505q0 53 -40.5 85t-108.5 32
q-60 0 -98.5 -27.5t-38.5 -69.5q0 -48 64 -85q19 -11 102 -45q7 -3 22 -9q98 42 98 119zM484 166q0 44 -50 78t-180 78q-51 -23 -72 -38q-53 -36 -53 -98q0 -59 50.5 -95.5t131.5 -36.5q77 0 125 31t48 81z" />
    <glyph glyph-name="nine" unicode="9" horiz-adv-x="608" 
d="M574 213q0 -106 -57.5 -201t-153.5 -149q-114 -63 -262 -91l45 63q125 32 218 126q102 103 102 244q0 100 -50.5 164t-130.5 64q-69 0 -111.5 -45.5t-42.5 -119.5q0 -79 42 -126t113 -47q54 0 129 38l-61 -85q-55 -23 -106 -23q-92 0 -156 66t-64 162q0 104 78.5 176
t191.5 72q119 0 197.5 -82t78.5 -206z" />
    <glyph glyph-name="colon" unicode=":" horiz-adv-x="257" 
d="M194 405q0 -28 -19 -47t-46 -19q-28 0 -47 19t-19 47q0 27 19.5 46t47.5 19q26 0 45 -19.5t19 -45.5zM194 57q0 -28 -19 -47t-46 -19q-28 0 -47 19t-19 47q0 27 19.5 46t47.5 19q26 0 45 -19.5t19 -45.5z" />
    <glyph glyph-name="semicolon" unicode=";" horiz-adv-x="257" 
d="M190 405q0 -28 -19 -47t-47 -19q-27 0 -46 19t-19 47q0 27 19.5 46t47.5 19q26 0 45 -19.5t19 -45.5zM193 49q0 -71 -71 -140q-19 -18 -32 -18q-8 0 -40 3q78 71 78 98q0 7 -22 13q-42 11 -42 56q0 25 18.5 43t44.5 18q29 0 47.5 -20.5t18.5 -52.5z" />
    <glyph glyph-name="less" unicode="&#x3c;" 
d="M487 94l-452 218v81l452 218v-95l-350 -164l350 -164v-94z" />
    <glyph glyph-name="equal" unicode="=" horiz-adv-x="640" 
d="M551 387h-462v72h462v-72zM551 236h-462v72h462v-72z" />
    <glyph glyph-name="greater" unicode="&#x3e;" 
d="M487 311l-452 -218v95l350 164l-350 164v95l452 -218v-82z" />
    <glyph glyph-name="question" unicode="?" horiz-adv-x="431" 
d="M386 375q0 -38 -20 -68t-71 -70q-56 -44 -66.5 -56t-10.5 -31q0 -1 2 -19l-77 -7q-3 18 -3 24q0 44 39 82q35 29 71 58q39 35 39 72q0 38 -34 63.5t-83 25.5q-42 0 -126 -29l56 80q47 16 89 16q85 0 140 -39.5t55 -101.5zM247 41q0 -23 -16.5 -39.5t-39.5 -16.5
t-39.5 16.5t-16.5 39.5t16.5 39.5t40.5 16.5q23 0 39 -16.5t16 -39.5z" />
    <glyph glyph-name="at" unicode="@" horiz-adv-x="889" 
d="M792 444q0 -112 -66.5 -198.5t-151.5 -86.5q-34 0 -57 22t-23 54q0 26 7 59l33 154q-28 25 -77 25q-50 0 -82.5 -39t-32.5 -99q0 -93 89 -93q23 0 50 8l-43 -66q-22 -7 -42 -7q-59 0 -96.5 41.5t-37.5 108.5q0 53 23.5 101.5t63.5 77.5q44 32 111 32q29 0 66 -9t50 -9
q12 0 37 11l14 6l-50 -234q-6 -28 -6 -45q0 -29 29 -29q47 0 83.5 64.5t36.5 147.5q0 96 -63.5 151t-174.5 55q-139 0 -225 -85.5t-86 -224.5q0 -127 77.5 -203.5t206.5 -76.5q120 0 224 70l-15 -69q-100 -65 -249 -65q-137 0 -226.5 94t-89.5 238q0 170 109 277t281 107
q142 0 222.5 -70t80.5 -195z" />
    <glyph glyph-name="A" unicode="A" horiz-adv-x="767" 
d="M765 0h-219q38 23 38 42q0 12 -18 59l-62 161h-267l-60 -161q-12 -32 -12 -54q0 -27 38 -47h-194q36 23 53 48t45 94l186 464q12 30 12 48q0 25 -32 41h168l222 -553q25 -63 46 -92t56 -50zM477 330l-107 276l-108 -276h215z" />
    <glyph glyph-name="B" unicode="B" horiz-adv-x="633" 
d="M589 219q0 -59 -36 -110.5t-98 -80t-179 -28.5h-224q34 18 43 59q4 18 4 76v425q0 58 -4 76q-9 41 -43 59h150q-1 0 18 1h37h33q99 0 146 -25q86 -45 86 -130q0 -72 -61 -112q-17 -11 -45 -24q48 -13 79 -30q94 -53 94 -156zM409 524q0 47 -37 75.5t-98 28.5
q-31 0 -72 -6v-207q19 -2 40 -2q75 0 121 30.5t46 80.5zM471 205q0 68 -48 106t-141 38q-40 0 -80 -5v-260q48 -10 93 -10q84 0 130 34.5t46 96.5z" />
    <glyph glyph-name="C" unicode="C" horiz-adv-x="670" 
d="M657 137l-53 -123q-77 -31 -164 -31q-181 0 -290.5 99.5t-109.5 263.5q0 158 106 262t268 104q79 0 190 -27v-121q-101 58 -192 58q-111 0 -181.5 -72.5t-70.5 -185.5q0 -124 77 -210t189 -86q101 0 231 69z" />
    <glyph glyph-name="D" unicode="D" horiz-adv-x="743" 
d="M703 355q0 -104 -55 -191.5t-147 -128.5q-78 -35 -279 -35h-170q32 29 38 47q9 28 9 93v420q0 58 -4 76q-9 41 -43 59h106q40 0 70.5 1t82.5 1q169 0 274 -87q118 -98 118 -255zM587 344q0 122 -73.5 201.5t-211.5 79.5q-41 0 -97 -11v-528q37 -7 78 -7q132 0 201 51
q103 76 103 214z" />
    <glyph glyph-name="E" unicode="E" horiz-adv-x="550" 
d="M541 138l-49 -138h-440q34 18 43 59q4 19 4 77v424q0 57 -4 76q-9 41 -43 59h351q23 0 40 6v-123q-28 27 -59 35q-23 7 -70 7q-66 0 -109 -7v-197h141q21 0 36 7v-112q-22 29 -83 29h-94v-251q67 -11 130 -11q126 0 206 60z" />
    <glyph glyph-name="F" unicode="F" horiz-adv-x="469" 
d="M443 579q-28 26 -58 35q-24 6 -70 6q-65 0 -110 -7v-197h141q21 0 36 7v-112q-21 29 -83 29h-94v-205q0 -58 4 -76q9 -41 43 -59h-200q34 18 43 59q4 18 4 76v425q0 58 -4 76q-9 41 -43 59h351q23 0 40 6v-122z" />
    <glyph glyph-name="G" unicode="G" horiz-adv-x="793" 
d="M724 14q-12 -1 -37 -6q-122 -25 -216 -25q-170 0 -279 74q-152 103 -152 286q0 185 162 294q112 75 274 75q77 0 167 -18v-121q-68 64 -188 64q-129 0 -212 -79t-83 -201q0 -124 90 -211.5t217 -87.5q87 0 145 21v140q0 58 -4 76q-9 41 -43 59h159q-6 -19 -6 -62v-224
q0 -36 6 -54z" />
    <glyph glyph-name="H" unicode="H" horiz-adv-x="791" 
d="M738 0h-200q34 19 43 59q4 19 4 76v200h-380v-200q0 -58 4 -76q9 -41 43 -59h-200q34 18 43 59q4 18 4 76v425q0 58 -4 76q-9 41 -43 59h200q-34 -18 -43 -59q-4 -18 -4 -76v-144h380v144q0 57 -4 76q-9 40 -43 59h200q-34 -19 -43 -59q-4 -19 -4 -76v-425q0 -57 4 -76
q9 -40 43 -59z" />
    <glyph glyph-name="I" unicode="I" horiz-adv-x="304" 
d="M252 0h-200q34 18 43 59q4 18 4 76v425q0 58 -4 76q-9 41 -43 59h200q-34 -18 -43 -59q-4 -18 -4 -76v-425q0 -58 4 -76q9 -41 43 -59z" />
    <glyph glyph-name="J" unicode="J" horiz-adv-x="290" 
d="M245 695q-34 -18 -43 -59q-4 -18 -4 -76v-560q0 -95 -6 -115q-16 -54 -104 -96q-59 -28 -125 -32q68 42 100 92q29 45 29 151v560q0 57 -4 76q-9 40 -43 59h200z" />
    <glyph glyph-name="K" unicode="K" horiz-adv-x="657" 
d="M676 0q-45 -5 -101 -5q-62 0 -98.5 32t-138.5 176q-29 43 -90 127q-9 10 -25 32l146 194q52 69 52 94t-32 45h190l-243 -312q120 -162 149 -200q34 -44 65 -80q36 -41 126 -103zM252 0h-200q34 18 43 59q4 18 4 76v425q0 58 -4 76q-9 41 -43 59h200q-34 -18 -43 -59
q-4 -18 -4 -76v-425q0 -58 4 -76q9 -41 43 -59z" />
    <glyph glyph-name="L" unicode="L" horiz-adv-x="552" 
d="M539 140l-56 -140h-431q34 18 43 59q4 18 4 76v425q0 58 -4 76q-9 41 -43 59h200q-34 -18 -43 -59q-4 -18 -4 -76v-474q74 -11 142 -11q57 0 98.5 14t93.5 51z" />
    <glyph glyph-name="M" unicode="M" horiz-adv-x="1003" 
d="M976 0h-204q44 19 44 80q0 19 -5 59l-56 452l-237 -605q-38 32 -53.5 52.5t-33.5 63.5l-207 489l-62 -466q-5 -38 -5 -55q0 -40 42 -70h-173q44 42 57 139l61 444q6 44 6 54q0 32 -37 58h185q0 -14 10 -37l203 -477l171 438q20 51 20 76h183q-33 -16 -33 -66q0 -16 3 -38
l65 -466q8 -56 17.5 -79t38.5 -46z" />
    <glyph glyph-name="N" unicode="N" horiz-adv-x="788" 
d="M748 695q-34 -22 -45 -46.5t-11 -77.5v-605q-77 25 -145 111l-370 469v-422q0 -52 11.5 -77.5t43.5 -46.5h-188q34 22 45 46.5t11 77.5v447q0 52 -11.5 77.5t-43.5 46.5h154q2 -6 25 -39l391 -498v413q0 52 -11.5 77t-44.5 47h189z" />
    <glyph glyph-name="O" unicode="O" horiz-adv-x="856" 
d="M815 352q0 -155 -113.5 -262t-276.5 -107q-161 0 -273 105t-112 256q0 157 114.5 263t284.5 106q162 0 269 -104q50 -48 78.5 -117t28.5 -140zM695 335q0 123 -72 210q-76 92 -199 92q-116 0 -190.5 -76.5t-74.5 -199.5q0 -130 85 -224q71 -79 185 -79q118 0 192 77
t74 200z" />
    <glyph glyph-name="P" unicode="P" horiz-adv-x="577" 
d="M550 511q0 -82 -68.5 -140t-164.5 -58q-40 0 -76 14q89 11 136 51q55 47 55 114q0 61 -41 96t-112 35q-37 0 -74 -9v-490q0 -52 11.5 -78t43.5 -46h-208q34 18 43 59q4 18 4 76v425q0 58 -4 76q-9 41 -43 59h101q9 0 39 1h79h33q85 0 139 -26q49 -24 78 -67t29 -92z" />
    <glyph glyph-name="Q" unicode="Q" horiz-adv-x="855" 
d="M973 -136q-61 -55 -133 -55q-109 0 -338 184q-54 -10 -88 -10q-158 0 -266 105t-108 258q0 156 113.5 261t281.5 105q162 0 271 -102t109 -254q0 -71 -29 -140.5t-78 -117.5q-29 -29 -81 -57q189 -177 334 -177h12zM695 336q0 122 -74.5 211.5t-196.5 89.5
q-107 0 -182 -68q-83 -75 -83 -202q0 -123 72 -216t200 -93q116 0 190 78t74 200z" />
    <glyph glyph-name="R" unicode="R" horiz-adv-x="633" 
d="M676 0q-78 -6 -97 -6q-45 0 -77.5 21t-85.5 84q-101 120 -185 263q176 30 176 151q0 52 -35.5 84.5t-92.5 32.5q-31 0 -74 -8v-487q0 -58 4 -76q9 -41 43 -59h-200q34 18 43 59q4 18 4 76v425q0 58 -4 76q-9 41 -43 59h153q16 0 47 1t47 1q101 0 156 -41q70 -52 70 -135
q0 -61 -48 -111.5t-123 -69.5q118 -159 188.5 -233t133.5 -107z" />
    <glyph glyph-name="S" unicode="S" horiz-adv-x="580" 
d="M541 203q0 -80 -65 -143q-81 -78 -221 -78q-95 0 -186 33l-32 131q107 -84 232 -84q67 0 112.5 31t45.5 77q0 44 -35 75q-30 26 -135.5 74t-145.5 84q-55 50 -55 122q0 85 71.5 136t191.5 51q79 0 161 -23v-120q-71 69 -167 69q-62 0 -100.5 -27.5t-38.5 -71.5
q0 -39 30.5 -65.5t125.5 -70.5q113 -52 154 -85q57 -45 57 -115z" />
    <glyph glyph-name="T" unicode="T" horiz-adv-x="538" 
d="M545 702l-34 -126q-14 27 -42 35q-17 5 -57 5q-8 0 -26.5 -1.5t-47.5 -1.5h-17v-489q0 -52 11 -76.5t45 -47.5h-209q34 18 43 59q4 19 4 76v478q-31 3 -85 3q-48 0 -72 -6q-31 -8 -65 -34l39 126q21 -7 54 -7h397q13 0 27 1l14 1q5 1 21 5z" />
    <glyph glyph-name="U" unicode="U" horiz-adv-x="752" 
d="M700 0h-149v73q-75 -90 -209 -90q-83 0 -145 37q-69 41 -91 115q-10 36 -10 118v307q0 58 -4 76q-9 41 -43 59h200q-34 -19 -43 -59q-4 -19 -4 -76v-307q0 -91 37 -135q49 -58 134 -58q101 0 154 75q20 30 20 82v343q0 57 -4 76q-9 40 -43 59h200q-34 -19 -43 -59
q-4 -19 -4 -76v-425q0 -57 4 -76q9 -40 43 -59z" />
    <glyph glyph-name="V" unicode="V" horiz-adv-x="655" 
d="M648 695l-282 -726q-72 47 -93 72q-18 22 -43 89l-143 386q-39 106 -50.5 129t-41.5 50h154q-1 -5 -1 -12q0 -21 24 -86l173 -472l149 391q32 85 32 119q0 44 -38 60h160z" />
    <glyph glyph-name="W" unicode="W" horiz-adv-x="1002" 
d="M990 695l-223 -725q-8 6 -38 26q-49 33 -64 52.5t-34 79.5l-119 375l-164 -533q-19 14 -49 34q-42 28 -56 48t-32 76l-133 414q-24 75 -39.5 102.5t-44.5 50.5h154q-2 -12 -2 -13q0 -16 11 -50l164 -510l131 420q18 58 18 89q0 36 -42 64h146q-3 -13 -3 -20q0 -26 15 -73
l153 -477l128 406q21 67 21 92q0 52 -57 72h159z" />
    <glyph glyph-name="X" unicode="X" horiz-adv-x="722" 
d="M716 0l-101 -6h-19q-30 0 -41.5 8t-36.5 46l-169 254l-154 -205q-23 -31 -23 -51q0 -27 38 -46h-205q28 28 39 42l77 98l177 230l-143 205q-41 59 -61 81q-24 26 -52 39l107 4q5 0 11 1h7q21 0 29 -6t34 -44l141 -201l113 152q25 34 25 58q0 25 -43 36h194l-240 -313
l176 -262q41 -61 62.5 -82.5t57.5 -37.5z" />
    <glyph glyph-name="Y" unicode="Y" horiz-adv-x="638" 
d="M634 695l-259 -391v-180q0 -48 8 -69q10 -25 45 -55h-204q33 23 41 60q4 17 4 75v169l-182 293q-27 43 -44 60.5t-50 37.5l120 4q24 0 33 -7t31 -43l159 -260l133 202q20 30 20 51q0 32 -38 53h183z" />
    <glyph glyph-name="Z" unicode="Z" horiz-adv-x="654" 
d="M638 134l-55 -134h-558l389 609q-77 11 -173 11q-60 0 -88 -7q-33 -9 -84 -39l51 121h467l-386 -606q129 -11 223 -11q113 0 214 56z" />
    <glyph glyph-name="bracketleft" unicode="[" horiz-adv-x="333" 
d="M291 -159h-236q29 22 36 55q4 16 4 66v618q0 47 -4 63q-7 27 -36 52h236v-57h-106v-737h106v-60z" />
    <glyph glyph-name="backslash" unicode="\" horiz-adv-x="374" 
d="M419 -145h-78l-331 840h76z" />
    <glyph glyph-name="bracketright" unicode="]" horiz-adv-x="328" 
d="M273 -159h-231v60h106v737h-106v57h231q-25 -25 -31 -53q-4 -16 -4 -62v-618q0 -50 3 -66q6 -34 32 -55z" />
    <glyph glyph-name="asciicircum" unicode="^" 
d="M502 370h-102l-140 252l-139 -252h-102l179 328h125z" />
    <glyph glyph-name="underscore" unicode="_" 
d="M521 -145h-521v75h521v-75z" />
    <glyph glyph-name="grave" unicode="`" 
d="M343 559l-270 91l58 72z" />
    <glyph glyph-name="a" unicode="a" horiz-adv-x="594" 
d="M599 0h-185q4 4 10 9q19 16 19 27q0 8 -14 39l-49 109h-188l-47 -109q-9 -21 -9 -35q0 -15 31 -40h-166q42 23 78 109l139 327q9 21 9 31q0 15 -29 37h149l171 -395q22 -51 36.5 -70.5t44.5 -38.5zM358 243l-72 191l-74 -191h146z" />
    <glyph glyph-name="b" unicode="b" horiz-adv-x="525" 
d="M481 160q0 -43 -28.5 -81t-76.5 -58q-35 -14 -65 -17.5t-134 -3.5h-128q28 23 33.5 38t5.5 64v300q0 48 -6 64t-33 38h128q106 0 125 -2q55 -6 90 -37.5t35 -74.5q0 -61 -74 -96q63 -18 90 -46q38 -39 38 -88zM326 377q0 33 -25 52t-69 19q-24 0 -49 -4v-141h21
q56 0 89 20t33 54zM376 152q0 98 -136 98q-25 0 -57 -3v-178q37 -8 70 -8q123 0 123 91z" />
    <glyph glyph-name="c" unicode="c" horiz-adv-x="557" 
d="M546 117l-53 -106q-65 -25 -135 -25q-163 0 -249 96q-68 76 -68 173q0 112 85 187.5t210 75.5q65 0 159 -22v-102q-85 48 -158 48q-80 0 -132.5 -50.5t-52.5 -128.5q0 -84 57.5 -144t138.5 -60q79 0 198 58z" />
    <glyph glyph-name="d" unicode="d" horiz-adv-x="612" 
d="M571 257q0 -76 -43 -139t-116 -93q-61 -25 -219 -25h-144q28 23 33.5 38t5.5 64v300q0 48 -6 64t-33 38h149q16 0 37 1h25q137 0 219 -63q92 -71 92 -185zM462 249q0 89 -55.5 140.5t-149.5 51.5q-30 0 -72 -7v-360q29 -5 58 -5q95 0 146 35q73 50 73 145z" />
    <glyph glyph-name="e" unicode="e" horiz-adv-x="462" 
d="M458 100l-42 -100h-367q27 23 33 38.5t6 64.5v299q0 48 -6 64t-33 38h291q21 0 38 7v-92q-36 18 -107 18q-57 0 -86 -4v-126h109q16 0 35 7v-89q-25 15 -73 15h-71v-164q48 -7 103 -7q94 0 170 31z" />
    <glyph glyph-name="f" unicode="f" horiz-adv-x="401" 
d="M378 419q-43 18 -108 18q-54 0 -85 -4v-126h109q18 0 35 7v-90q-23 16 -73 16h-71v-137q0 -49 6 -65t33 -38h-175q27 23 33 38.5t6 64.5v299q0 48 -6 64t-33 38h291q22 0 38 7v-92z" />
    <glyph glyph-name="g" unicode="g" horiz-adv-x="630" 
d="M576 11q-14 -1 -31 -4q-116 -21 -177 -21q-145 0 -236 73t-91 190q0 116 93.5 192.5t236.5 76.5q54 0 137 -16v-104q-62 51 -151 51q-90 0 -148.5 -53.5t-58.5 -136.5t64 -143.5t152 -60.5q62 0 105 13v93q0 51 -5.5 65t-33.5 36l143 2q-7 -21 -7 -51v-158q0 -29 8 -44z
" />
    <glyph glyph-name="h" unicode="h" horiz-adv-x="639" 
d="M591 0h-176q28 23 34 38t6 64v134h-270v-134q0 -48 6 -64t33 -38h-175q28 23 33.5 38t5.5 64v300q0 48 -6 64t-33 38h175q-27 -22 -33 -38t-6 -64v-95h270v95q0 48 -6 64t-33 38h175q-27 -22 -33 -38t-6 -64v-300q0 -48 6 -64t33 -38z" />
    <glyph glyph-name="i" unicode="i" horiz-adv-x="273" 
d="M224 0h-175q28 23 33.5 38t5.5 64v300q0 48 -6 64t-33 38h175q-27 -22 -33 -38t-6 -64v-300q0 -48 6 -64t33 -38z" />
    <glyph glyph-name="j" unicode="j" horiz-adv-x="272" 
d="M226 504q-27 -22 -33 -38t-6 -64v-395q0 -69 -5 -83q-15 -42 -88 -72q-55 -23 -133 -25q78 39 106 77q23 31 23 103v395q0 48 -6 64t-33 38h175z" />
    <glyph glyph-name="k" unicode="k" horiz-adv-x="558" 
d="M574 2q-49 -6 -91 -6q-50 0 -78.5 22.5t-110.5 127.5q-30 39 -93 116l112 141q7 8 20 25q22 28 22 40q0 14 -25 36h172l-196 -224q124 -160 163 -200.5t105 -77.5zM224 0h-175q28 23 33.5 38t5.5 64v300q0 48 -6 64t-33 38h175q-27 -22 -33 -38t-6 -64v-300q0 -48 6 -64
t33 -38z" />
    <glyph glyph-name="l" unicode="l" horiz-adv-x="467" 
d="M457 108l-49 -108h-359q28 23 33.5 38t5.5 64v300q0 48 -6 64t-33 38h175q-27 -22 -33 -38t-6 -64v-328q58 -7 106 -7q52 0 85 8q29 8 81 33z" />
    <glyph glyph-name="m" unicode="m" horiz-adv-x="804" 
d="M777 0h-181q45 19 45 58q0 18 -4 46l-44 307l-175 -423q-56 39 -78 89l-146 335l-47 -318q-4 -27 -4 -38q0 -30 31 -56h-140q19 23 25 43q6 16 13 63l49 313q5 32 5 38q0 21 -27 47h157q0 -7 3 -16t6 -14l145 -333l123 305q4 10 8 18q8 16 8 40h173q-23 -10 -30 -18
q-11 -12 -11 -33q0 -16 2 -28l53 -329q10 -63 41 -96z" />
    <glyph glyph-name="n" unicode="n" horiz-adv-x="644" 
d="M598 504q-27 -22 -33 -38t-6 -64v-428q-77 22 -128 83l-269 323v-278q0 -48 6 -64t33 -38h-152q28 23 33.5 38t5.5 64v300q0 48 -6 64t-33 38h131l9 -15l13 -15l283 -343v271q0 48 -6 64t-33 38h152z" />
    <glyph glyph-name="o" unicode="o" horiz-adv-x="672" 
d="M631 255q0 -113 -86.5 -191t-210.5 -78q-123 0 -208 76.5t-85 187.5q0 115 86.5 192t216.5 77q121 0 204 -76.5t83 -187.5zM522 243q0 88 -54 147t-135 59q-79 0 -131 -53t-52 -134q0 -88 59 -153q49 -54 128 -54q83 0 134 52t51 136z" />
    <glyph glyph-name="p" unicode="p" horiz-adv-x="487" 
d="M465 367q0 -59 -56 -103t-130 -44q-39 0 -74 21q64 8 91 21q62 30 62 90q0 87 -119 87q-29 0 -54 -5v-332q0 -48 6 -64t33 -38h-175q28 23 33.5 38t5.5 64v300q0 48 -6 64t-33 38h88q7 0 31 1h65h29q68 0 113 -19q41 -18 65.5 -50t24.5 -69z" />
    <glyph glyph-name="q" unicode="q" horiz-adv-x="672" 
d="M784 -82q-57 -52 -115 -52q-90 0 -274 129q-40 -9 -72 -9q-117 0 -199.5 78t-82.5 188q0 113 86.5 189.5t214.5 76.5q124 0 206.5 -74.5t82.5 -185.5q0 -70 -33 -128.5t-91 -92.5q148 -119 260 -119h17zM521 244q0 82 -53 145q-50 60 -135 60q-80 0 -131.5 -52
t-51.5 -132q0 -84 49.5 -147t137.5 -63q81 0 132.5 53t51.5 136z" />
    <glyph glyph-name="r" unicode="r" horiz-adv-x="533" 
d="M572 2q-75 -6 -94 -6q-35 0 -61 15t-68 61q-72 79 -148 195q136 22 136 101q0 35 -27 55.5t-72 20.5q-27 0 -53 -5v-337q0 -48 6 -64t33 -38h-175q28 23 33.5 38t5.5 64v300q0 48 -6 64t-33 38h130q3 0 16 1h24h35q83 0 131 -30q59 -37 59 -101q0 -48 -50 -91
q-27 -23 -78 -39q93 -116 144.5 -164.5t111.5 -77.5z" />
    <glyph glyph-name="s" unicode="s" horiz-adv-x="490" 
d="M447 150q0 -70 -65.5 -117t-162.5 -47q-75 0 -154 25l-31 114q93 -70 196 -70q47 0 80 21t33 51q0 27 -26 48q-22 18 -102 51q-85 36 -114 60q-44 37 -44 91q0 64 57 102.5t151 38.5q65 0 135 -19v-104q-62 58 -140 58q-43 0 -70 -18t-27 -47q0 -25 23 -42.5t95 -47.5
q88 -37 120 -61q46 -34 46 -87z" />
    <glyph glyph-name="t" unicode="t" horiz-adv-x="449" 
d="M457 512l-33 -102q-25 25 -87 25q-4 0 -18.5 -1t-38.5 -1h-8v-330q0 -49 6 -65t33 -38h-175q27 23 33 38.5t6 64.5v330q-26 2 -63 2q-69 0 -114 -29l31 104q17 -6 47 -6h322q23 0 33.5 1.5t25.5 6.5z" />
    <glyph glyph-name="u" unicode="u" horiz-adv-x="626" 
d="M576 0h-133v44q-60 -58 -159 -58q-58 0 -107 23.5t-70.5 61.5t-21.5 114v217q0 48 -6 64t-33 38h175q-27 -22 -33 -38t-6 -64v-217q0 -62 29 -91q38 -38 99 -38q34 0 70.5 16.5t51.5 44.5q8 15 8 43v242q0 48 -6 64t-33 38h175q-27 -22 -33 -38t-6 -64v-300q0 -48 6 -64
t33 -38z" />
    <glyph glyph-name="v" unicode="v" horiz-adv-x="545" 
d="M542 504l-236 -528q-63 35 -80 53t-38 67l-116 273q-31 72 -42 93q-14 26 -33 42h137q-1 -7 -1 -13q0 -16 19 -61l135 -320l115 263q26 59 26 83q0 27 -40 48h154z" />
    <glyph glyph-name="w" unicode="w" horiz-adv-x="825" 
d="M818 504l-187 -527q-12 7 -37 21q-39 23 -52 38.5t-29 59.5l-91 249l-131 -368l-45 27q-34 20 -46.5 35.5t-27.5 56.5l-107 291q-21 56 -34 77.5t-37 39.5h140q-3 -10 -3 -15q0 -10 9 -34l127 -345l101 281q14 39 14 62q0 24 -30 51h127q-4 -13 -4 -22q0 -17 12 -49
l119 -321l98 271q16 44 16 65q0 35 -40 56h138z" />
    <glyph glyph-name="x" unicode="x" horiz-adv-x="599" 
d="M596 2l-98 -6q-32 0 -43 6t-33 35l-132 173l-120 -139q-18 -21 -18 -32q0 -17 35 -39h-186q12 11 68 74l172 194l-111 141q-64 82 -97 94l95 4q23 1 33 -2t37 -36l110 -136l87 102q19 22 19 36q0 11 -45 33h187l-200 -228l139 -180q41 -54 55 -67q18 -17 46 -27z" />
    <glyph glyph-name="y" unicode="y" horiz-adv-x="531" 
d="M533 504l-217 -285v-117q0 -48 6 -64t33 -38h-175q27 23 33 38t6 64v117l-147 205q-37 52 -83 79l111 4q19 0 27.5 -6t27.5 -33l124 -176l103 136q15 20 15 32q0 19 -33 44h169z" />
    <glyph glyph-name="z" unicode="z" horiz-adv-x="544" 
d="M534 108l-52 -108h-467l316 431q-54 6 -131 6q-47 0 -75 -6t-72 -27l48 100h395l-314 -428q95 -7 164 -7q92 0 188 39z" />
    <glyph glyph-name="braceleft" unicode="{" horiz-adv-x="333" 
d="M291 -159h-156q-27 0 -36 18q-4 11 -4 97v218q0 26 -13 38q-8 8 -38 18v75q28 10 37 18q14 13 14 38v219q0 90 6 101q10 14 34 14h156v-57h-50q-38 0 -47 -9t-9 -47v-230q0 -35 -9 -52t-38 -32q29 -16 38 -33t9 -52v-229q0 -38 8.5 -47t46.5 -9h51v-57z" />
    <glyph glyph-name="bar" unicode="|" 
d="M309 -174h-96v869h96v-869z" />
    <glyph glyph-name="braceright" unicode="}" horiz-adv-x="333" 
d="M289 230q-30 -10 -39 -18q-12 -11 -12 -38v-218q0 -90 -7 -101q-9 -14 -34 -14h-155v57h50q38 0 47 9t9 47v229q0 35 9 52.5t38 32.5q-29 15 -38 32t-9 52v230q0 38 -9 47t-47 9h-50v57h155q28 0 37 -18q4 -11 4 -97v-219q0 -26 13 -38q9 -8 38 -18v-75z" />
    <glyph glyph-name="asciitilde" unicode="~" horiz-adv-x="695" 
d="M599 732q-32 -66 -66 -93q-40 -31 -90 -31q-33 0 -147 49q-35 15 -60 15q-46 0 -85 -73l-55 36q25 52 40 72q43 56 107 56q38 0 115 -33q70 -30 97 -30q28 0 46.5 13.5t41.5 51.5z" />
    <glyph glyph-name="Adieresis" unicode="&#xc4;" horiz-adv-x="767" 
d="M543 834q0 -27 -18.5 -45.5t-45.5 -18.5q-26 0 -44.5 19t-18.5 45t19 44.5t46 18.5q25 0 43.5 -18.5t18.5 -44.5zM349 833q0 -26 -18.5 -45t-44.5 -19q-27 0 -45.5 18.5t-18.5 45.5q0 26 19 44.5t46 18.5q25 0 43.5 -18.5t18.5 -44.5zM765 0h-219q38 23 38 42
q0 12 -18 59l-62 161h-267l-60 -161q-12 -32 -12 -54q0 -27 38 -47h-194q36 23 53 48t45 94l186 464q12 30 12 48q0 25 -32 41h168l222 -553q25 -63 46 -92t56 -50zM477 330l-107 276l-108 -276h215z" />
    <glyph glyph-name="Aring" unicode="&#xc5;" horiz-adv-x="767" 
d="M486 855q0 -46 -32 -78t-78 -32t-78 32.5t-32 78.5t32.5 77.5t79.5 31.5q44 0 76 -32.5t32 -77.5zM765 0h-219q38 23 38 42q0 12 -18 59l-62 161h-267l-60 -161q-12 -32 -12 -54q0 -27 38 -47h-194q36 23 53 48t45 94l186 464q12 30 12 48q0 25 -32 41h168l222 -553
q25 -63 46 -92t56 -50zM434 855q0 24 -17 40.5t-41 16.5t-40.5 -17t-16.5 -40q0 -24 16.5 -41t41.5 -17q24 0 40.5 16.5t16.5 41.5zM477 330l-107 276l-108 -276h215z" />
    <glyph glyph-name="Ccedilla" unicode="&#xc7;" horiz-adv-x="670" 
d="M657 137l-53 -123q-77 -31 -166 -31h-29l-21 -49q21 5 36 5q35 0 56 -20t21 -53q0 -35 -29 -57.5t-73 -22.5q-63 0 -112 37l33 41q37 -27 69 -27q42 0 42 29q0 27 -30 27q-15 0 -31 -8l-37 49l21 54q-77 18 -122 38q-88 39 -140 126t-52 194q0 158 106 262t268 104
q79 0 190 -27v-121q-101 58 -192 58q-111 0 -181.5 -72.5t-70.5 -185.5q0 -124 77 -210t189 -86q101 0 231 69z" />
    <glyph glyph-name="Eacute" unicode="&#xc9;" horiz-adv-x="550" 
d="M482 837l-288 -86l230 164zM541 138l-49 -138h-440q34 18 43 59q4 19 4 77v424q0 57 -4 76q-9 41 -43 59h351q23 0 40 6v-123q-28 27 -59 35q-23 7 -70 7q-66 0 -109 -7v-197h141q21 0 36 7v-112q-22 29 -83 29h-94v-251q67 -11 130 -11q126 0 206 60z" />
    <glyph glyph-name="Ntilde" unicode="&#xd1;" horiz-adv-x="788" 
d="M599 902q-4 -13 -13 -37q-16 -45 -29 -61q-24 -29 -68 -29q-25 0 -78 18q-68 23 -100 23q-25 0 -44 -11q-10 -5 -37 -28q23 64 32 79q21 32 62 32q19 0 64 -13q8 -3 69 -20q28 -8 43 -8q34 0 99 55zM748 695q-34 -22 -45 -46.5t-11 -77.5v-605q-77 25 -145 111l-370 469
v-422q0 -52 11.5 -77.5t43.5 -46.5h-188q34 22 45 46.5t11 77.5v447q0 52 -11.5 77.5t-43.5 46.5h154q2 -6 25 -39l391 -498v413q0 52 -11.5 77t-44.5 47h189z" />
    <glyph glyph-name="Odieresis" unicode="&#xd6;" horiz-adv-x="856" 
d="M588 834q0 -27 -18.5 -45.5t-45.5 -18.5q-26 0 -44.5 19t-18.5 45t19 44.5t46 18.5q25 0 43.5 -18.5t18.5 -44.5zM394 833q0 -26 -18.5 -45t-44.5 -19q-27 0 -45.5 18.5t-18.5 45.5q0 26 19 44.5t46 18.5q25 0 43.5 -18.5t18.5 -44.5zM815 352q0 -155 -113.5 -262
t-276.5 -107q-161 0 -273 105t-112 256q0 157 114.5 263t284.5 106q162 0 269 -104q50 -48 78.5 -117t28.5 -140zM695 335q0 123 -72 210q-76 92 -199 92q-116 0 -190.5 -76.5t-74.5 -199.5q0 -130 85 -224q71 -79 185 -79q118 0 192 77t74 200z" />
    <glyph glyph-name="Udieresis" unicode="&#xdc;" horiz-adv-x="752" 
d="M537 834q0 -27 -18.5 -45.5t-45.5 -18.5q-26 0 -44.5 19t-18.5 45t19 44.5t46 18.5q25 0 43.5 -18.5t18.5 -44.5zM343 833q0 -26 -18.5 -45t-44.5 -19q-27 0 -45.5 18.5t-18.5 45.5q0 26 19 44.5t46 18.5q25 0 43.5 -18.5t18.5 -44.5zM700 0h-149v73q-75 -90 -209 -90
q-83 0 -145 37q-69 41 -91 115q-10 36 -10 118v307q0 58 -4 76q-9 41 -43 59h200q-34 -19 -43 -59q-4 -19 -4 -76v-307q0 -91 37 -135q49 -58 134 -58q101 0 154 75q20 30 20 82v343q0 57 -4 76q-9 40 -43 59h200q-34 -19 -43 -59q-4 -19 -4 -76v-425q0 -57 4 -76
q9 -40 43 -59z" />
    <glyph glyph-name="aacute" unicode="&#xe1;" horiz-adv-x="594" 
d="M486 650l-270 -91l213 163zM599 0h-185q4 4 10 9q19 16 19 27q0 8 -14 39l-49 109h-188l-47 -109q-9 -21 -9 -35q0 -15 31 -40h-166q42 23 78 109l139 327q9 21 9 31q0 15 -29 37h149l171 -395q22 -51 36.5 -70.5t44.5 -38.5zM358 243l-72 191l-74 -191h146z" />
    <glyph glyph-name="agrave" unicode="&#xe0;" horiz-adv-x="594" 
d="M348 559l-270 91l58 72zM599 0h-185q4 4 10 9q19 16 19 27q0 8 -14 39l-49 109h-188l-47 -109q-9 -21 -9 -35q0 -15 31 -40h-166q42 23 78 109l139 327q9 21 9 31q0 15 -29 37h149l171 -395q22 -51 36.5 -70.5t44.5 -38.5zM358 243l-72 191l-74 -191h146z" />
    <glyph glyph-name="acircumflex" unicode="&#xe2;" horiz-adv-x="594" 
d="M464 550q-71 4 -166 58q-91 -54 -169 -58l169 146zM599 0h-185q4 4 10 9q19 16 19 27q0 8 -14 39l-49 109h-188l-47 -109q-9 -21 -9 -35q0 -15 31 -40h-166q42 23 78 109l139 327q9 21 9 31q0 15 -29 37h149l171 -395q22 -51 36.5 -70.5t44.5 -38.5zM358 243l-72 191
l-74 -191h146z" />
    <glyph glyph-name="adieresis" unicode="&#xe4;" horiz-adv-x="594" 
d="M451 638q0 -25 -18 -43t-43 -18t-43.5 18.5t-18.5 43.5t18.5 43t44.5 18q24 0 42 -18.5t18 -43.5zM266 639q0 -26 -17.5 -44t-43.5 -18t-44 18t-18 44q0 25 18.5 43t44.5 18q25 0 42.5 -18t17.5 -43zM599 0h-185q4 4 10 9q19 16 19 27q0 8 -14 39l-49 109h-188l-47 -109
q-9 -21 -9 -35q0 -15 31 -40h-166q42 23 78 109l139 327q9 21 9 31q0 15 -29 37h149l171 -395q22 -51 36.5 -70.5t44.5 -38.5zM358 243l-72 191l-74 -191h146z" />
    <glyph glyph-name="atilde" unicode="&#xe3;" horiz-adv-x="594" 
d="M462 700q-24 -115 -95 -115q-23 0 -74 14q-69 19 -88 19q-31 0 -75 -32q18 56 30 72q22 29 53 29q21 0 123 -26q20 -5 31 -5q41 0 95 44zM599 0h-185q4 4 10 9q19 16 19 27q0 8 -14 39l-49 109h-188l-47 -109q-9 -21 -9 -35q0 -15 31 -40h-166q42 23 78 109l139 327
q9 21 9 31q0 15 -29 37h149l171 -395q22 -51 36.5 -70.5t44.5 -38.5zM358 243l-72 191l-74 -191h146z" />
    <glyph glyph-name="aring" unicode="&#xe5;" horiz-adv-x="594" 
d="M401 659q0 -43 -30.5 -74t-74.5 -31q-43 0 -73.5 30.5t-30.5 74.5q0 43 31 73.5t75 30.5q42 0 72.5 -31t30.5 -73zM599 0h-185q4 4 10 9q19 16 19 27q0 8 -14 39l-49 109h-188l-47 -109q-9 -21 -9 -35q0 -15 31 -40h-166q42 23 78 109l139 327q9 21 9 31q0 15 -29 37h149
l171 -395q22 -51 36.5 -70.5t44.5 -38.5zM352 658q0 23 -16.5 39t-39.5 16q-22 0 -38 -16.5t-16 -38.5t16.5 -38.5t38.5 -16.5q23 0 39 16t16 39zM358 243l-72 191l-74 -191h146z" />
    <glyph glyph-name="ccedilla" unicode="&#xe7;" horiz-adv-x="560" 
d="M548 117l-53 -106q-64 -25 -132 -25q-17 0 -30 1l-16 -43q17 3 24 3q35 0 56.5 -17.5t21.5 -46.5q0 -33 -27 -55.5t-67 -22.5q-61 0 -111 37l31 41q42 -32 73 -32q37 0 37 31q0 27 -32 27q-12 0 -27 -5l-30 40l19 48q-51 10 -85 25q-72 33 -114.5 97t-42.5 141
q0 112 85 187.5t210 75.5q65 0 159 -22v-102q-85 48 -158 48q-80 0 -132.5 -50.5t-52.5 -128.5q0 -84 57.5 -144t138.5 -60q79 0 198 58z" />
    <glyph glyph-name="eacute" unicode="&#xe9;" horiz-adv-x="462" 
d="M431 650l-270 -91l213 163zM458 100l-42 -100h-367q27 23 33 38.5t6 64.5v299q0 48 -6 64t-33 38h291q21 0 38 7v-92q-36 18 -107 18q-57 0 -86 -4v-126h109q16 0 35 7v-89q-25 15 -73 15h-71v-164q48 -7 103 -7q94 0 170 31z" />
    <glyph glyph-name="egrave" unicode="&#xe8;" horiz-adv-x="462" 
d="M324 559l-270 91l58 72zM458 100l-42 -100h-367q27 23 33 38.5t6 64.5v299q0 48 -6 64t-33 38h291q21 0 38 7v-92q-36 18 -107 18q-57 0 -86 -4v-126h109q16 0 35 7v-89q-25 15 -73 15h-71v-164q48 -7 103 -7q94 0 170 31z" />
    <glyph glyph-name="ecircumflex" unicode="&#xea;" horiz-adv-x="462" 
d="M409 550q-71 4 -166 58q-91 -54 -169 -58l169 146zM458 100l-42 -100h-367q27 23 33 38.5t6 64.5v299q0 48 -6 64t-33 38h291q21 0 38 7v-92q-36 18 -107 18q-57 0 -86 -4v-126h109q16 0 35 7v-89q-25 15 -73 15h-71v-164q48 -7 103 -7q94 0 170 31z" />
    <glyph glyph-name="edieresis" unicode="&#xeb;" horiz-adv-x="462" 
d="M395 638q0 -25 -18 -43t-43 -18t-43.5 18.5t-18.5 43.5t18.5 43t44.5 18q24 0 42 -18.5t18 -43.5zM210 639q0 -26 -17.5 -44t-43.5 -18t-44 18t-18 44q0 25 18.5 43t44.5 18q25 0 42.5 -18t17.5 -43zM458 100l-42 -100h-367q27 23 33 38.5t6 64.5v299q0 48 -6 64t-33 38
h291q21 0 38 7v-92q-36 18 -107 18q-57 0 -86 -4v-126h109q16 0 35 7v-89q-25 15 -73 15h-71v-164q48 -7 103 -7q94 0 170 31z" />
    <glyph glyph-name="iacute" unicode="&#xed;" horiz-adv-x="273" 
d="M326 650l-270 -91l213 163zM224 0h-175q28 23 33.5 38t5.5 64v300q0 48 -6 64t-33 38h175q-27 -22 -33 -38t-6 -64v-300q0 -48 6 -64t33 -38z" />
    <glyph glyph-name="igrave" unicode="&#xec;" horiz-adv-x="273" 
d="M219 559l-270 91l58 72zM224 0h-175q28 23 33.5 38t5.5 64v300q0 48 -6 64t-33 38h175q-27 -22 -33 -38t-6 -64v-300q0 -48 6 -64t33 -38z" />
    <glyph glyph-name="icircumflex" unicode="&#xee;" horiz-adv-x="273" 
d="M283 550q-62 4 -145 58q-79 -54 -148 -58l148 146zM224 0h-175q27 23 33 38t6 64v300q0 48 -6 64t-33 38h175q-27 -22 -33 -38t-6 -64v-300q0 -48 6 -64t33 -38z" />
    <glyph glyph-name="idieresis" unicode="&#xef;" horiz-adv-x="273" 
d="M281 638q0 -25 -18 -43t-43 -18t-43.5 18.5t-18.5 43.5t18.5 43t44.5 18q24 0 42 -18.5t18 -43.5zM116 639q0 -26 -17.5 -44t-43.5 -18t-44 18t-18 44q0 25 18.5 43t44.5 18q25 0 42.5 -18t17.5 -43zM224 0h-175q28 23 33.5 38t5.5 64v300q0 48 -6 64t-33 38h175
q-27 -22 -33 -38t-6 -64v-300q0 -48 6 -64t33 -38z" />
    <glyph glyph-name="ntilde" unicode="&#xf1;" horiz-adv-x="644" 
d="M497 700q-24 -115 -95 -115q-23 0 -74 14q-69 19 -88 19q-31 0 -75 -32q18 56 30 72q22 29 53 29q21 0 123 -26q20 -5 31 -5q41 0 95 44zM598 504q-27 -22 -33 -38t-6 -64v-428q-77 22 -128 83l-269 323v-278q0 -48 6 -64t33 -38h-152q28 23 33.5 38t5.5 64v300
q0 48 -6 64t-33 38h131l9 -15l13 -15l283 -343v271q0 48 -6 64t-33 38h152z" />
    <glyph glyph-name="oacute" unicode="&#xf3;" horiz-adv-x="672" 
d="M526 650l-270 -91l213 163zM631 255q0 -113 -86.5 -191t-210.5 -78q-123 0 -208 76.5t-85 187.5q0 115 86.5 192t216.5 77q121 0 204 -76.5t83 -187.5zM522 243q0 88 -54 147t-135 59q-79 0 -131 -53t-52 -134q0 -88 59 -153q49 -54 128 -54q83 0 134 52t51 136z" />
    <glyph glyph-name="ograve" unicode="&#xf2;" horiz-adv-x="686" 
d="M426 559l-270 91l58 72zM638 255q0 -113 -86.5 -191t-210.5 -78q-123 0 -208 76.5t-85 187.5q0 115 86.5 192t216.5 77q121 0 204 -76.5t83 -187.5zM529 243q0 88 -54 147t-135 59q-79 0 -131 -53t-52 -134q0 -88 59 -153q49 -54 128 -54q83 0 134 52t51 136z" />
    <glyph glyph-name="ocircumflex" unicode="&#xf4;" horiz-adv-x="672" 
d="M504 550q-71 4 -166 58q-91 -54 -169 -58l169 146zM631 255q0 -113 -86.5 -191t-210.5 -78q-123 0 -208 76.5t-85 187.5q0 115 86.5 192t216.5 77q121 0 204 -76.5t83 -187.5zM522 243q0 88 -54 147t-135 59q-79 0 -131 -53t-52 -134q0 -88 59 -153q49 -54 128 -54
q83 0 134 52t51 136z" />
    <glyph glyph-name="odieresis" unicode="&#xf6;" horiz-adv-x="686" 
d="M497 638q0 -25 -18 -43t-43 -18t-43.5 18.5t-18.5 43.5t18.5 43t44.5 18q24 0 42 -18.5t18 -43.5zM312 639q0 -26 -17.5 -44t-43.5 -18t-44 18t-18 44q0 25 18.5 43t44.5 18q25 0 42.5 -18t17.5 -43zM638 255q0 -113 -86.5 -191t-210.5 -78q-123 0 -208 76.5t-85 187.5
q0 115 86.5 192t216.5 77q121 0 204 -76.5t83 -187.5zM529 243q0 88 -54 147t-135 59q-79 0 -131 -53t-52 -134q0 -88 59 -153q49 -54 128 -54q83 0 134 52t51 136z" />
    <glyph glyph-name="otilde" unicode="&#xf5;" horiz-adv-x="672" 
d="M501 700q-24 -115 -95 -115q-23 0 -74 14q-69 19 -88 19q-31 0 -75 -32q18 56 30 72q22 29 53 29q21 0 123 -26q20 -5 31 -5q41 0 95 44zM631 255q0 -113 -86.5 -191t-210.5 -78q-123 0 -208 76.5t-85 187.5q0 115 86.5 192t216.5 77q121 0 204 -76.5t83 -187.5zM522 243
q0 88 -54 147t-135 59q-79 0 -131 -53t-52 -134q0 -88 59 -153q49 -54 128 -54q83 0 134 52t51 136z" />
    <glyph glyph-name="uacute" unicode="&#xfa;" horiz-adv-x="626" 
d="M502 650l-270 -91l213 163zM576 0h-133v44q-60 -58 -159 -58q-58 0 -107 23.5t-70.5 61.5t-21.5 114v217q0 48 -6 64t-33 38h175q-27 -22 -33 -38t-6 -64v-217q0 -62 29 -91q38 -38 99 -38q34 0 70.5 16.5t51.5 44.5q8 15 8 43v242q0 48 -6 64t-33 38h175
q-27 -22 -33 -38t-6 -64v-300q0 -48 6 -64t33 -38z" />
    <glyph glyph-name="ugrave" unicode="&#xf9;" horiz-adv-x="626" 
d="M395 559l-270 91l58 72zM576 0h-133v44q-60 -58 -159 -58q-58 0 -107 23.5t-70.5 61.5t-21.5 114v217q0 48 -6 64t-33 38h175q-27 -22 -33 -38t-6 -64v-217q0 -62 29 -91q38 -38 99 -38q34 0 70.5 16.5t51.5 44.5q8 15 8 43v242q0 48 -6 64t-33 38h175q-27 -22 -33 -38
t-6 -64v-300q0 -48 6 -64t33 -38z" />
    <glyph glyph-name="ucircumflex" unicode="&#xfb;" horiz-adv-x="626" 
d="M480 550q-71 4 -166 58q-91 -54 -169 -58l169 146zM576 0h-133v44q-60 -58 -159 -58q-58 0 -107 23.5t-70.5 61.5t-21.5 114v217q0 48 -6 64t-33 38h175q-27 -22 -33 -38t-6 -64v-217q0 -62 29 -91q38 -38 99 -38q34 0 70.5 16.5t51.5 44.5q8 15 8 43v242q0 48 -6 64
t-33 38h175q-27 -22 -33 -38t-6 -64v-300q0 -48 6 -64t33 -38z" />
    <glyph glyph-name="udieresis" unicode="&#xfc;" horiz-adv-x="626" 
d="M466 638q0 -25 -18 -43t-43 -18t-43.5 18.5t-18.5 43.5t18.5 43t44.5 18q24 0 42 -18.5t18 -43.5zM281 639q0 -26 -17.5 -44t-43.5 -18t-44 18t-18 44q0 25 18.5 43t44.5 18q25 0 42.5 -18t17.5 -43zM576 0h-133v44q-60 -58 -159 -58q-58 0 -107 23.5t-70.5 61.5
t-21.5 114v217q0 48 -6 64t-33 38h175q-27 -22 -33 -38t-6 -64v-217q0 -62 29 -91q38 -38 99 -38q34 0 70.5 16.5t51.5 44.5q8 15 8 43v242q0 48 -6 64t-33 38h175q-27 -22 -33 -38t-6 -64v-300q0 -48 6 -64t33 -38z" />
    <glyph glyph-name="dagger" unicode="&#x2020;" horiz-adv-x="640" 
d="M567 337q-46 27 -116 27h-86v-381q0 -57 4.5 -78.5t22.5 -49.5h-143q18 28 22.5 49.5t4.5 78.5v381h-87q-68 0 -116 -27v136q49 -24 116 -24h87v136q0 70 -27 110h143q-27 -38 -27 -110v-136h86q67 0 116 24v-136z" />
    <glyph glyph-name="degree" unicode="&#xb0;" horiz-adv-x="670" 
d="M481 559q0 -60 -42.5 -102.5t-102.5 -42.5t-103 42.5t-43 102.5q0 61 42.5 103.5t104.5 42.5q59 0 101.5 -43t42.5 -103zM424 559q0 37 -26 63t-63 26q-36 0 -61.5 -26t-25.5 -62t26 -62t63 -26q36 0 61.5 25.5t25.5 61.5z" />
    <glyph glyph-name="cent" unicode="&#xa2;" horiz-adv-x="542" 
d="M477 261l-26 -109q-38 -16 -99 -18v-99h-63v99q-102 17 -161 82t-59 162q0 127 104 205q46 35 116 44v103h63v-103q56 0 93 -10v-98q-33 38 -93 38v-352q58 3 125 56zM289 211v343q-118 -21 -118 -166q0 -71 31 -117.5t87 -59.5z" />
    <glyph glyph-name="sterling" unicode="&#xa3;" horiz-adv-x="563" 
d="M509 6q-58 -21 -107 -21q-61 0 -126 45q-55 -45 -117 -45q-46 0 -74 21.5t-28 56.5q0 38 31 62t80 24q37 0 93 -19q11 28 11 63q0 65 -50 139h-118v60h74q-2 4 -7 11q-52 74 -52 132q0 78 56.5 127t145.5 49q56 0 132 -30l3 -107q-72 60 -126 60q-42 0 -71.5 -25.5
t-29.5 -62.5q0 -24 13 -48.5t67 -105.5h139v-60h-103q28 -62 28 -116q0 -53 -35 -114q31 -21 65 -21q57 0 106 28v-103zM220 68q-30 25 -67 25q-16 0 -27.5 -9t-11.5 -22q0 -28 41 -28q39 0 65 34z" />
    <glyph glyph-name="section" unicode="&#xa7;" horiz-adv-x="640" 
d="M535 289q0 -83 -78 -152q39 -43 39 -102q0 -85 -63.5 -139.5t-162.5 -54.5q-89 0 -166 33v111q61 -33 81 -41q44 -18 88 -18q52 0 85 27t33 70q0 31 -22.5 52t-102.5 63q-89 47 -124.5 87t-35.5 93q0 79 89 146q-40 39 -40 92q0 73 55 115t149 42q72 0 137 -25v-109
q-46 61 -135 61q-47 0 -75.5 -19.5t-28.5 -52.5q0 -26 19.5 -44.5t73.5 -42.5q106 -48 145.5 -89t39.5 -103zM443 261q0 36 -27.5 62.5t-99.5 61.5q-26 13 -67 33q-44 -37 -44 -78q0 -32 21.5 -53t94.5 -60q48 -26 86 -49q36 39 36 83z" />
    <glyph glyph-name="bullet" unicode="&#x2022;" horiz-adv-x="695" 
d="M493 354q0 -60 -42.5 -102.5t-101.5 -42.5q-60 0 -102.5 42.5t-42.5 101.5q0 61 42.5 103t104.5 42q58 0 100 -42.5t42 -101.5z" />
    <glyph glyph-name="paragraph" unicode="&#xb6;" horiz-adv-x="633" 
d="M552 695q-25 -19 -37 -48q-8 -20 -8 -90v-731h-78v826h-41v-826h-78v826q-48 -1 -74 -41q-31 -47 -31 -147q0 -64 20 -99.5t68 -58.5q-25 -6 -48 -6q-89 0 -146.5 57t-57.5 145q0 125 100 172q46 21 156 21h255z" />
    <glyph glyph-name="germandbls" unicode="&#xdf;" horiz-adv-x="981" 
d="M937 150q0 -70 -65.5 -117t-162.5 -47q-75 0 -154 25l-31 114q93 -70 196 -70q47 0 80 21t33 51q0 28 -25 48q-20 16 -104 51q-80 34 -113 60q-44 36 -44 91q0 64 57 102.5t152 38.5q64 0 134 -19v-104q-62 58 -140 58q-43 0 -70 -18t-27 -47q0 -25 23 -42.5t95 -47.5
q87 -36 120 -61q46 -34 46 -87zM447 150q0 -70 -65.5 -117t-162.5 -47q-75 0 -154 25l-31 114q93 -70 196 -70q47 0 80 21t33 51q0 27 -26 48q-22 18 -102 51q-85 36 -114 60q-44 37 -44 91q0 64 57 102.5t151 38.5q65 0 135 -19v-104q-62 58 -140 58q-43 0 -70 -18t-27 -47
q0 -25 23 -42.5t95 -47.5q88 -37 120 -61q46 -34 46 -87z" />
    <glyph glyph-name="registered" unicode="&#xae;" horiz-adv-x="814" 
d="M773 347q0 -151 -107.5 -257.5t-259.5 -106.5t-259 106.5t-107 257.5q0 153 108 259t263 106q149 0 255.5 -107.5t106.5 -257.5zM725 347q0 135 -93.5 228.5t-228.5 93.5q-128 0 -221 -95t-93 -227q0 -133 93.5 -227t224.5 -94t224.5 94t93.5 227zM634 151q-45 -8 -60 -8
q-46 0 -102 60q-75 80 -118 152q111 18 111 87q0 29 -21 47t-54 18q-19 0 -43 -4v-284q0 -38 4 -50q7 -21 36 -33h-152q29 12 36 33q4 11 4 50v250q0 39 -4 50q-7 21 -36 34h139q8 0 19 1h12q63 0 102 -29.5t39 -77.5q0 -78 -104 -109q71 -91 108 -127t84 -60z" />
    <glyph glyph-name="copyright" unicode="&#xa9;" horiz-adv-x="814" 
d="M773 347q0 -151 -107.5 -257.5t-259.5 -106.5t-259 106.5t-107 257.5q0 153 108 259t263 106q149 0 255.5 -107.5t106.5 -257.5zM725 347q0 135 -93.5 228.5t-228.5 93.5q-128 0 -221 -95t-93 -227q0 -133 93.5 -227t224.5 -94t224.5 94t93.5 227zM597 234l-38 -82
q-49 -20 -105 -20q-116 0 -183.5 59.5t-67.5 160.5q0 96 64.5 157t167.5 61q57 0 125 -17v-80q-67 37 -123 37q-67 0 -110 -42t-43 -107q0 -71 47 -121t115 -50q63 0 151 44z" />
    <glyph glyph-name="trademark" unicode="&#x2122;" horiz-adv-x="820" 
d="M818 348h-143q22 6 30.5 14.5t8.5 29.5q0 12 -2 27l-27 201l-120 -282q-39 29 -54 62l-102 221l-30 -209q-3 -21 -3 -25q0 -21 32 -39h-118q29 24 36 73l32 216q3 20 3 26q0 15 -29 32h118q1 -9 6 -20l102 -222l86 203q10 24 10 39h122q-32 -10 -32 -35q0 -6 2 -19
l34 -227q4 -30 10.5 -40.5t27.5 -25.5zM297 701l-24 -82q-10 20 -19.5 24.5t-33.5 4.5h-11q-9 -1 -22 -1h-11v-234q0 -28 7 -39.5t33 -25.5h-145q27 11 34 27q4 10 4 43v229l-9 1h-25q-31 0 -46.5 -4.5t-41.5 -22.5l27 79q15 -5 32 -5l235 1z" />
    <glyph glyph-name="acute" unicode="&#xb4;" horiz-adv-x="522" 
d="M450 650l-270 -91l213 163z" />
    <glyph glyph-name="dieresis" unicode="&#xa8;" 
d="M415 638q0 -25 -18 -43t-43 -18t-43.5 18.5t-18.5 43.5t18.5 43t44.5 18q24 0 42 -18.5t18 -43.5zM230 639q0 -26 -17.5 -44t-43.5 -18t-44 18t-18 44q0 25 18.5 43t44.5 18q25 0 42.5 -18t17.5 -43z" />
    <glyph glyph-name="AE" unicode="&#xc6;" horiz-adv-x="992" 
d="M983 139l-48 -139h-441q34 19 43 59q4 19 4 76v206h-172l-174 -244q-27 -38 -27 -53q0 -19 32 -44h-213q42 28 66 54q28 32 126 164l268 361l30 40q20 28 20 45q0 19 -25 31h374q23 0 39 6v-122q-28 26 -58 35q-23 6 -69 6q-67 0 -110 -7v-197h141q21 0 36 7v-111
q-21 29 -84 29h-94v-252q74 -11 132 -11q124 0 204 61zM546 605l-128 -197h126z" />
    <glyph glyph-name="Oslash" unicode="&#xd8;" horiz-adv-x="857" 
d="M816 354q0 -73 -33.5 -146.5t-89.5 -124.5q-111 -100 -271 -100q-116 0 -223 67l-68 -79h-87l103 121q-107 117 -107 251q0 157 115.5 263.5t284.5 106.5q114 0 207 -58l62 70h94l-102 -111q50 -46 74 -94q41 -81 41 -166zM701 337q0 109 -67 201l-373 -422
q74 -60 166 -60q123 0 198.5 77t75.5 204zM586 586q-66 53 -162 53q-116 0 -192.5 -78.5t-76.5 -197.5q0 -107 61 -195z" />
    <glyph glyph-name="plusminus" unicode="&#xb1;" horiz-adv-x="640" 
d="M551 315h-195v-199h-72v199h-195v72h195v200h72v-200h195v-72zM551 -27h-462v75h462v-75z" />
    <glyph glyph-name="yen" unicode="&#xa5;" horiz-adv-x="640" 
d="M611 695l-181 -299h139v-56h-172l-20 -31v-37h171v-56h-171v-106q0 -44 11 -68t39 -42h-193q30 17 40 42q7 19 7 61v113h-172v56h172v39l-19 33h-174v56h142l-121 219q-28 50 -81 76h113q31 0 39 -5t24 -35l142 -268l109 199q21 38 21 60q0 28 -33 49h168z" />
    <glyph glyph-name="ordfeminine" unicode="&#xaa;" horiz-adv-x="426" 
d="M380 321l-33 -47q-57 4 -74.5 19.5t-17.5 63.5v75q-18 -8 -43 -14q-46 -11 -60 -18q-17 -12 -17 -34q0 -45 63 -45q21 0 50 8l-41 -56q-21 -3 -33 -3q-51 0 -83 27t-32 70q0 45 38 65q26 14 86 25q41 8 55.5 15.5t14.5 22.5q0 34 -56 34q-37 0 -100 -29l52 76q25 4 46 4
q87 0 114 -44q13 -21 13 -75v-80q0 -39 15 -50q12 -9 43 -10z" />
    <glyph glyph-name="ordmasculine" unicode="&#xba;" horiz-adv-x="426" 
d="M383 428q0 -66 -50.5 -112t-123.5 -46q-71 0 -119 44.5t-48 109.5q0 68 50.5 112.5t126.5 44.5q69 0 116.5 -44.5t47.5 -108.5zM308 415q0 52 -27.5 83.5t-71.5 31.5q-40 0 -66 -27.5t-26 -71.5q0 -46 28 -78.5t69 -32.5q40 0 67 27.5t27 67.5z" />
    <glyph glyph-name="ae" unicode="&#xe6;" horiz-adv-x="807" 
d="M803 100l-42 -100h-367q27 23 33 38.5t6 64.5v133h-134l-136 -165q-21 -25 -21 -33q0 -15 19 -38h-184q58 29 120 110q17 22 44 54l217 255q39 46 39 55q0 13 -28 30h316q20 0 38 6v-91q-36 18 -107 18q-57 0 -86 -4v-129h109q15 0 35 7v-90q-27 16 -74 16h-70v-161
q46 -7 103 -7q94 0 170 31zM441 440l-111 -146h107z" />
    <glyph glyph-name="oslash" unicode="&#xf8;" horiz-adv-x="672" 
d="M659 525l-100 -93q72 -81 72 -177q0 -113 -86.5 -191t-211.5 -78q-92 0 -176 51l-57 -57h-88l97 98q-68 74 -68 174q0 112 86.5 189t213.5 77q95 0 171 -46l53 53h94zM453 412q-45 40 -116 40q-82 0 -134 -46q-60 -53 -60 -147q0 -58 31 -120zM529 246q0 66 -33 122
l-279 -277q50 -39 118 -39q89 0 141.5 53t52.5 141z" />
    <glyph glyph-name="questiondown" unicode="&#xbf;" horiz-adv-x="431" 
d="M297 469q0 -23 -16.5 -39.5t-39.5 -16.5t-39.5 16.5t-16.5 39.5t16.5 39.5t40.5 16.5q23 0 39 -16.5t16 -39.5zM385 91l-56 -79q-47 -16 -89 -16q-86 0 -140.5 39.5t-54.5 101.5q0 38 20 68t71 70q56 44 66.5 55.5t10.5 30.5q0 7 -3 19l78 7q2 -13 2 -23q0 -32 -16 -56
t-57 -55q-75 -57 -75 -101q0 -38 33.5 -64t83.5 -26q39 0 126 29z" />
    <glyph glyph-name="exclamdown" unicode="&#xa1;" horiz-adv-x="345" 
d="M229 470q0 -23 -16.5 -39.5t-39.5 -16.5t-39.5 16.5t-16.5 39.5q0 24 16.5 40t40.5 16q23 0 39 -16.5t16 -39.5zM264 0h-146l22 375h68l16 -291q1 -42 7.5 -55t32.5 -29z" />
    <glyph glyph-name="logicalnot" unicode="&#xac;" 
d="M487 0h-96v189h-356v89h452v-278z" />
    <glyph glyph-name="florin" unicode="&#x192;" horiz-adv-x="584" 
d="M611 685l-67 -67q-23 24 -54 24q-39 0 -57.5 -29t-35.5 -118l-4 -21h88q14 0 40 10l-17 -81q-21 11 -36 11h-86l-75 -399q-26 -138 -79.5 -184.5t-140.5 -46.5q-56 0 -114 26l71 70q27 -23 58 -23q44 0 65.5 35t40.5 137l73 385h-53l64 65l8 34q26 110 59 146
q50 54 138 54q61 0 114 -28z" />
    <glyph glyph-name="guillemotleft" unicode="&#xab;" horiz-adv-x="381" 
d="M336 81h-31l-122 177l123 175h30l-62 -175zM195 81h-31l-122 177l122 175h31l-62 -175z" />
    <glyph glyph-name="guillemotright" unicode="&#xbb;" horiz-adv-x="381" 
d="M340 258l-122 -177h-31l62 177l-62 175h30zM199 258l-122 -177h-31l62 177l-62 175h30z" />
    <glyph glyph-name="ellipsis" unicode="&#x2026;" horiz-adv-x="770" 
d="M707 57q0 -28 -19 -47t-46 -19q-28 0 -47 19t-19 47q0 27 19.5 46t47.5 19q26 0 45 -19.5t19 -45.5zM451 57q0 -28 -19 -47t-46 -19q-28 0 -47 19t-19 47q0 27 19.5 46t47.5 19q26 0 45 -19.5t19 -45.5zM194 57q0 -28 -19 -47t-46 -19q-28 0 -47 19t-19 47q0 27 19.5 46
t47.5 19q26 0 45 -19.5t19 -45.5z" />
    <glyph glyph-name="nonbreakingspace" unicode="&#xa0;" horiz-adv-x="261" 
 />
    <glyph glyph-name="Agrave" unicode="&#xc0;" horiz-adv-x="767" 
d="M461 751l-288 86l58 78zM765 0h-219q38 23 38 42q0 12 -18 59l-62 161h-267l-60 -161q-12 -32 -12 -54q0 -27 38 -47h-194q36 23 53 48t45 94l186 464q12 30 12 48q0 25 -32 41h168l222 -553q25 -63 46 -92t56 -50zM477 330l-107 276l-108 -276h215z" />
    <glyph glyph-name="Atilde" unicode="&#xc3;" horiz-adv-x="767" 
d="M567 902q-4 -13 -13 -37q-16 -45 -29 -61q-24 -29 -68 -29q-25 0 -78 18q-68 23 -100 23q-25 0 -44 -11q-10 -5 -37 -28q23 64 32 79q21 32 62 32q19 0 64 -13q8 -3 69 -20q28 -8 43 -8q34 0 99 55zM765 0h-219q38 23 38 42q0 12 -18 59l-62 161h-267l-60 -161
q-12 -32 -12 -54q0 -27 38 -47h-194q36 23 53 48t45 94l186 464q12 30 12 48q0 25 -32 41h168l222 -553q25 -63 46 -92t56 -50zM477 330l-107 276l-108 -276h215z" />
    <glyph glyph-name="Otilde" unicode="&#xd5;" horiz-adv-x="856" 
d="M622 902q-4 -13 -13 -37q-16 -45 -29 -61q-24 -29 -68 -29q-25 0 -78 18q-68 23 -100 23q-25 0 -44 -11q-10 -5 -37 -28q23 64 32 79q21 32 62 32q19 0 64 -13q8 -3 69 -20q28 -8 43 -8q34 0 99 55zM815 352q0 -155 -113.5 -262t-276.5 -107q-161 0 -273 105t-112 256
q0 157 114.5 263t284.5 106q162 0 269 -104q50 -48 78.5 -117t28.5 -140zM695 335q0 123 -72 210q-76 92 -199 92q-116 0 -190.5 -76.5t-74.5 -199.5q0 -130 85 -224q71 -79 185 -79q118 0 192 77t74 200z" />
    <glyph glyph-name="OE" unicode="&#x152;" horiz-adv-x="1118" 
d="M1108 132l-51 -132h-427q48 33 48 91v16q-38 -51 -79 -76q-78 -48 -186 -48q-161 0 -267 103.5t-106 261.5q0 156 105 260.5t261 104.5t270 -121q3 71 -46 103h317q23 0 42 3q6 0 19 3v-127q-23 30 -62 39q-23 5 -76 5q-45 0 -95 -6v-198h122q31 0 50 7v-101
q-22 22 -71 22h-101v-254q72 -12 130 -12t100.5 11.5t102.5 44.5zM681 332q0 141 -73 223t-198 82q-111 0 -179 -69q-71 -72 -71 -205q0 -152 84 -234q72 -71 178 -71q52 0 105.5 21t85.5 54q68 70 68 199z" />
    <glyph glyph-name="oe" unicode="&#x153;" horiz-adv-x="897" 
d="M893 114l-51 -114h-346q30 36 31 78q-71 -92 -198 -92q-121 0 -204.5 77t-83.5 189t83 189t204 77q56 0 97.5 -18.5t101.5 -70.5q-4 43 -34 75l296 2l16 4v-114q-22 28 -53 36q-17 4 -65 4q-31 0 -71 -4v-125h93q27 0 46 6v-89q-23 16 -63 16h-76v-165q52 -7 100 -7
q52 0 92 11q31 9 85 35zM529 241q0 94 -54 151t-143 57q-76 0 -129.5 -47.5t-53.5 -139.5q0 -105 64 -159q57 -48 129 -48q32 0 71.5 15t63.5 36q52 46 52 135z" />
    <glyph glyph-name="endash" unicode="&#x2013;" horiz-adv-x="494" 
d="M461 318l-56 -76q-9 -13 -19 -16t-41 -3h-216q-59 0 -96 -13l58 73q11 13 20 16.5t35 3.5h209q68 0 106 15z" />
    <glyph glyph-name="emdash" unicode="&#x2014;" horiz-adv-x="845" 
d="M811 316l-56 -72q-11 -14 -19.5 -16.5t-47.5 -2.5h-557q-56 0 -96 -13l57 69q17 20 56 20h557q68 0 106 15z" />
    <glyph glyph-name="quotedblleft" unicode="&#x201c;" horiz-adv-x="413" 
d="M365 566q0 -25 -18 -42.5t-43 -17.5q-28 0 -48 20t-20 49q0 55 68 136q11 13 24 13q6 0 8 -1l24 -6q-60 -67 -60 -87q0 -8 12 -10q53 -8 53 -54zM191 566q0 -25 -18 -42.5t-43 -17.5q-28 0 -47.5 20t-19.5 49q0 51 41 103q27 34 33.5 40t16.5 6q5 0 9 -1l23 -6
q-6 -8 -10 -11q-50 -56 -50 -76q0 -8 12 -10q53 -8 53 -54z" />
    <glyph glyph-name="quotedblright" unicode="&#x201d;" horiz-adv-x="413" 
d="M351 640q0 -50 -41 -102q-28 -35 -34 -41t-16 -6l-9 1l-23 7q60 64 60 86q0 8 -12 11q-53 8 -53 54q0 25 17.5 42.5t43.5 17.5q28 0 47.5 -20.5t19.5 -49.5zM177 640q0 -50 -41 -102q-28 -35 -34 -41t-16 -6l-8 1l-24 7q60 66 60 86q0 8 -12 11q-53 8 -53 54
q0 25 17.5 42.5t43.5 17.5q28 0 47.5 -20.5t19.5 -49.5z" />
    <glyph glyph-name="quoteleft" unicode="&#x2018;" horiz-adv-x="239" 
d="M191 566q0 -25 -18 -42.5t-43 -17.5q-28 0 -47.5 20t-19.5 49q0 51 59 124q20 25 32 25q5 0 9 -1l23 -6q-6 -8 -10 -11q-50 -56 -50 -76q0 -8 12 -10q53 -8 53 -54z" />
    <glyph glyph-name="quoteright" unicode="&#x2019;" horiz-adv-x="239" 
d="M178 641q0 -53 -59 -125q-20 -25 -32 -25q-6 0 -9 1l-24 7q60 66 60 86q0 8 -12 11q-53 8 -53 54q0 25 18 42.5t44 17.5q28 0 47.5 -20t19.5 -49z" />
    <glyph glyph-name="divide" unicode="&#xf7;" horiz-adv-x="640" 
d="M375 524q0 -22 -15.5 -37.5t-37.5 -15.5t-38 16t-16 38t16 37.5t39 15.5q21 0 36.5 -16t15.5 -38zM551 314h-462v75h462v-75zM375 178q0 -22 -15.5 -37.5t-37.5 -15.5t-38 16t-16 38t16 37.5t39 15.5q21 0 36.5 -16t15.5 -38z" />
    <glyph glyph-name="ydieresis" unicode="&#xff;" horiz-adv-x="531" 
d="M419 638q0 -25 -18 -43t-43 -18t-43.5 18.5t-18.5 43.5t18.5 43t44.5 18q24 0 42 -18.5t18 -43.5zM234 639q0 -26 -17.5 -44t-43.5 -18t-44 18t-18 44q0 25 18.5 43t44.5 18q25 0 42.5 -18t17.5 -43zM533 504l-217 -285v-117q0 -48 6 -64t33 -38h-175q27 23 33 38t6 64
v117l-147 205q-37 52 -83 79l111 4q19 0 27.5 -6t27.5 -33l124 -176l103 136q15 20 15 32q0 19 -33 44h169z" />
    <glyph glyph-name="Ydieresis" unicode="&#x178;" horiz-adv-x="638" 
d="M490 834q0 -27 -18.5 -45.5t-45.5 -18.5q-26 0 -44.5 19t-18.5 45t19 44.5t46 18.5q25 0 43.5 -18.5t18.5 -44.5zM296 833q0 -26 -18.5 -45t-44.5 -19q-27 0 -45.5 18.5t-18.5 45.5q0 26 19 44.5t46 18.5q25 0 43.5 -18.5t18.5 -44.5zM634 695l-259 -391v-180
q0 -48 8 -69q10 -25 45 -55h-204q33 23 41 60q4 17 4 75v169l-182 293q-27 43 -44 60.5t-50 37.5l120 4q24 0 33 -7t31 -43l159 -260l133 202q20 30 20 51q0 32 -38 53h183z" />
    <glyph glyph-name="currency" unicode="&#xa4;" horiz-adv-x="640" 
d="M587 117l-46 -46l-90 89q-62 -45 -130 -45q-64 0 -132 45l-89 -89l-46 46l88 90q-44 61 -44 129q0 66 45 128l-91 90l47 47l90 -90q62 45 131 45q68 0 129 -44l90 88l46 -46l-89 -89q45 -67 45 -130q0 -65 -44 -128zM464 335q0 61 -42 103t-104 42q-59 0 -100.5 -42.5
t-41.5 -102.5q0 -59 42 -101.5t102 -42.5t102 42t42 102z" />
    <glyph glyph-name="guilsinglleft" unicode="&#x2039;" horiz-adv-x="240" 
d="M195 81h-31l-122 177l122 175h31l-62 -175z" />
    <glyph glyph-name="guilsinglright" unicode="&#x203a;" horiz-adv-x="240" 
d="M199 258l-122 -177h-31l62 177l-62 175h30z" />
    <glyph glyph-name="daggerdbl" unicode="&#x2021;" horiz-adv-x="640" 
d="M567 81q-51 25 -117 25h-85v-123q0 -57 4.5 -78t22.5 -50h-143q18 28 22.5 49.5t4.5 78.5v123h-86q-66 0 -117 -25v134q44 -26 124 -26h79v212h-87q-68 0 -116 -27v136q49 -24 116 -24h87v99q0 70 -27 110h143q-27 -38 -27 -110v-99h86q68 0 116 24v-136q-46 27 -116 27
h-86v-212h79q79 0 123 26v-134z" />
    <glyph glyph-name="periodcentered" unicode="&#x2219;" horiz-adv-x="257" 
d="M194 272q0 -28 -19 -47t-46 -19q-28 0 -47 19t-19 47q0 27 19.5 46t47.5 19q26 0 45 -19.5t19 -45.5z" />
    <glyph glyph-name="quotesinglbase" unicode="&#x201a;" horiz-adv-x="239" 
d="M178 53q0 -53 -41 -103q-28 -34 -34.5 -40t-17.5 -6q-5 0 -7 1l-24 6q60 67 60 87q0 8 -12 10q-53 8 -53 55q0 25 18 42t44 17q28 0 47.5 -20t19.5 -49z" />
    <glyph glyph-name="quotedblbase" unicode="&#x201e;" horiz-adv-x="413" 
d="M351 53q0 -53 -41 -103q-28 -34 -34.5 -40t-16.5 -6q-4 0 -8 1l-23 6q60 67 60 87q0 8 -12 10q-53 8 -53 55q0 24 18 41.5t43 17.5q28 0 47.5 -20t19.5 -49zM178 53q0 -53 -41 -103q-28 -34 -34.5 -40t-17.5 -6q-5 0 -7 1l-24 6q60 67 60 87q0 8 -12 10q-53 8 -53 55
q0 25 18 42t44 17q28 0 47.5 -20t19.5 -49z" />
    <glyph glyph-name="perthousand" unicode="&#x2030;" horiz-adv-x="1086" 
d="M1052 156q0 -69 -43.5 -116.5t-106.5 -47.5q-65 0 -107.5 45.5t-42.5 115.5q0 71 43.5 118t109.5 47q62 0 104.5 -47t42.5 -115zM335 540q0 -69 -43.5 -116.5t-106.5 -47.5q-65 0 -107.5 45.5t-42.5 115.5q0 72 43.5 118.5t109.5 46.5q62 0 104.5 -47t42.5 -115zM569 695
l-341 -695h-63l342 695h62zM704 156q0 -69 -43.5 -116.5t-106.5 -47.5q-65 0 -107.5 45.5t-42.5 115.5q0 71 43.5 118t109.5 47q62 0 104.5 -47t42.5 -115zM970 154q0 109 -70 109q-67 0 -67 -109q0 -106 69 -106q68 0 68 106zM254 538q0 109 -70 109q-68 0 -68 -110
q0 -105 69 -105t69 106zM623 154q0 109 -70 109q-67 0 -67 -109q0 -106 69 -106q68 0 68 106z" />
    <glyph glyph-name="Acircumflex" unicode="&#xc2;" horiz-adv-x="767" 
d="M555 757q-73 1 -171 51q-92 -51 -174 -51l174 149zM765 0h-219q38 23 38 42q0 12 -18 59l-62 161h-267l-60 -161q-12 -32 -12 -54q0 -27 38 -47h-194q36 23 53 48t45 94l186 464q12 30 12 48q0 25 -32 41h168l222 -553q25 -63 46 -92t56 -50zM477 330l-107 276l-108 -276
h215z" />
    <glyph glyph-name="Ecircumflex" unicode="&#xca;" horiz-adv-x="550" 
d="M447 757q-73 1 -171 51q-92 -51 -174 -51l174 149zM541 138l-49 -138h-440q34 18 43 59q4 19 4 77v424q0 57 -4 76q-9 41 -43 59h351q23 0 40 6v-123q-28 27 -59 35q-23 7 -70 7q-66 0 -109 -7v-197h141q21 0 36 7v-112q-22 29 -83 29h-94v-251q67 -11 130 -11
q126 0 206 60z" />
    <glyph glyph-name="Aacute" unicode="&#xc1;" horiz-adv-x="767" 
d="M596 837l-288 -86l230 164zM765 0h-219q38 23 38 42q0 12 -18 59l-62 161h-267l-60 -161q-12 -32 -12 -54q0 -27 38 -47h-194q36 23 53 48t45 94l186 464q12 30 12 48q0 25 -32 41h168l222 -553q25 -63 46 -92t56 -50zM477 330l-107 276l-108 -276h215z" />
    <glyph glyph-name="Edieresis" unicode="&#xcb;" horiz-adv-x="550" 
d="M436 834q0 -27 -18.5 -45.5t-45.5 -18.5q-26 0 -44.5 19t-18.5 45t19 44.5t46 18.5q25 0 43.5 -18.5t18.5 -44.5zM242 833q0 -26 -18.5 -45t-44.5 -19q-27 0 -45.5 18.5t-18.5 45.5q0 26 19 44.5t46 18.5q25 0 43.5 -18.5t18.5 -44.5zM541 138l-49 -138h-440q34 18 43 59
q4 19 4 77v424q0 57 -4 76q-9 41 -43 59h351q23 0 40 6v-123q-28 27 -59 35q-23 7 -70 7q-66 0 -109 -7v-197h141q21 0 36 7v-112q-22 29 -83 29h-94v-251q67 -11 130 -11q126 0 206 60z" />
    <glyph glyph-name="Egrave" unicode="&#xc8;" horiz-adv-x="550" 
d="M367 751l-288 86l58 78zM541 138l-49 -138h-440q34 18 43 59q4 19 4 77v424q0 57 -4 76q-9 41 -43 59h351q23 0 40 6v-123q-28 27 -59 35q-23 7 -70 7q-66 0 -109 -7v-197h141q21 0 36 7v-112q-22 29 -83 29h-94v-251q67 -11 130 -11q126 0 206 60z" />
    <glyph glyph-name="Iacute" unicode="&#xcd;" horiz-adv-x="304" 
d="M317 837l-260 -86l202 164zM252 0h-200q34 18 43 59q4 18 4 76v425q0 58 -4 76q-9 41 -43 59h200q-34 -18 -43 -59q-4 -18 -4 -76v-425q0 -58 4 -76q9 -41 43 -59z" />
    <glyph glyph-name="Icircumflex" unicode="&#xce;" horiz-adv-x="304" 
d="M314 750q-33 0 -64.5 13t-95.5 52q-100 -67 -164 -65l164 162zM252 0h-200q34 19 43 59q4 19 4 76v425q0 57 -4 76q-9 40 -43 59h200q-34 -19 -43 -59q-4 -19 -4 -76v-425q0 -57 4 -76q9 -40 43 -59z" />
    <glyph glyph-name="Idieresis" unicode="&#xcf;" horiz-adv-x="304" 
d="M302 820q0 -27 -18.5 -45.5t-45.5 -18.5q-26 0 -44.5 18.5t-18.5 45.5q0 26 19 44.5t46 18.5q25 0 43.5 -18.5t18.5 -44.5zM129 819q0 -26 -18.5 -45t-44.5 -19q-27 0 -45.5 18.5t-18.5 45.5q0 26 19 44.5t46 18.5q25 0 43.5 -19t18.5 -44zM252 0h-200q34 18 43 59
q4 18 4 76v425q0 58 -4 76q-9 41 -43 59h200q-34 -18 -43 -59q-4 -18 -4 -76v-425q0 -58 4 -76q9 -41 43 -59z" />
    <glyph glyph-name="Igrave" unicode="&#xcc;" horiz-adv-x="304" 
d="M251 751l-260 86l58 78zM252 0h-200q34 18 43 59q4 18 4 76v425q0 58 -4 76q-9 41 -43 59h200q-34 -18 -43 -59q-4 -18 -4 -76v-425q0 -58 4 -76q9 -41 43 -59z" />
    <glyph glyph-name="Oacute" unicode="&#xd3;" horiz-adv-x="856" 
d="M634 837l-288 -86l230 164zM815 352q0 -155 -113.5 -262t-276.5 -107q-161 0 -273 105t-112 256q0 157 114.5 263t284.5 106q162 0 269 -104q50 -48 78.5 -117t28.5 -140zM695 335q0 123 -72 210q-76 92 -199 92q-116 0 -190.5 -76.5t-74.5 -199.5q0 -130 85 -224
q71 -79 185 -79q118 0 192 77t74 200z" />
    <glyph glyph-name="Ocircumflex" unicode="&#xd4;" horiz-adv-x="856" 
d="M600 757q-73 1 -171 51q-92 -51 -174 -51l174 149zM815 352q0 -155 -113.5 -262t-276.5 -107q-161 0 -273 105t-112 256q0 157 114.5 263t284.5 106q162 0 269 -104q50 -48 78.5 -117t28.5 -140zM695 335q0 123 -72 210q-76 92 -199 92q-116 0 -190.5 -76.5t-74.5 -199.5
q0 -130 85 -224q71 -79 185 -79q118 0 192 77t74 200z" />
    <glyph glyph-name="Ograve" unicode="&#xd2;" horiz-adv-x="856" 
d="M519 751l-288 86l58 78zM815 352q0 -155 -113.5 -262t-276.5 -107q-161 0 -273 105t-112 256q0 157 114.5 263t284.5 106q162 0 269 -104q50 -48 78.5 -117t28.5 -140zM695 335q0 123 -72 210q-76 92 -199 92q-116 0 -190.5 -76.5t-74.5 -199.5q0 -130 85 -224
q71 -79 185 -79q118 0 192 77t74 200z" />
    <glyph glyph-name="Uacute" unicode="&#xda;" horiz-adv-x="752" 
d="M590 837l-288 -86l230 164zM700 0h-149v73q-75 -90 -209 -90q-83 0 -145 37q-69 41 -91 115q-10 36 -10 118v307q0 58 -4 76q-9 41 -43 59h200q-34 -19 -43 -59q-4 -19 -4 -76v-307q0 -91 37 -135q49 -58 134 -58q101 0 154 75q20 30 20 82v343q0 57 -4 76q-9 40 -43 59
h200q-34 -19 -43 -59q-4 -19 -4 -76v-425q0 -57 4 -76q9 -40 43 -59z" />
    <glyph glyph-name="Ucircumflex" unicode="&#xdb;" horiz-adv-x="752" 
d="M549 757q-73 1 -171 51q-92 -51 -174 -51l174 149zM700 0h-149v73q-75 -90 -209 -90q-83 0 -145 37q-69 41 -91 115q-10 36 -10 118v307q0 58 -4 76q-9 41 -43 59h200q-34 -19 -43 -59q-4 -19 -4 -76v-307q0 -91 37 -135q49 -58 134 -58q101 0 154 75q20 30 20 82v343
q0 57 -4 76q-9 40 -43 59h200q-34 -19 -43 -59q-4 -19 -4 -76v-425q0 -57 4 -76q9 -40 43 -59z" />
    <glyph glyph-name="Ugrave" unicode="&#xd9;" horiz-adv-x="752" 
d="M454 751l-288 86l58 78zM700 0h-149v73q-75 -90 -209 -90q-83 0 -145 37q-69 41 -91 115q-10 36 -10 118v307q0 58 -4 76q-9 41 -43 59h200q-34 -19 -43 -59q-4 -19 -4 -76v-307q0 -91 37 -135q49 -58 134 -58q101 0 154 75q20 30 20 82v343q0 57 -4 76q-9 40 -43 59h200
q-34 -19 -43 -59q-4 -19 -4 -76v-425q0 -57 4 -76q9 -40 43 -59z" />
    <glyph glyph-name="circumflex" unicode="&#x2c6;" 
d="M428 550q-71 4 -166 58q-91 -54 -169 -58l169 146z" />
    <glyph glyph-name="tilde" unicode="&#x2dc;" 
d="M426 700q-24 -115 -95 -115q-23 0 -74 14q-69 19 -88 19q-31 0 -75 -32q18 56 30 72q22 29 53 29q21 0 123 -26q20 -5 31 -5q41 0 95 44z" />
    <glyph glyph-name="macron" unicode="&#xaf;" 
d="M426 606h-330v67h330v-67z" />
    <glyph glyph-name="macron" unicode="&#x2c9;" 
d="M426 606h-330v67h330v-67z" />
    <glyph glyph-name="cedilla" unicode="&#xb8;" 
d="M406 -117q0 -33 -27 -55.5t-67 -22.5q-62 0 -112 37l32 41q42 -32 72 -32q37 0 37 31q0 27 -32 27q-11 0 -26 -5l-30 40l22 56h50l-22 -56q18 3 25 3q35 0 56.5 -17.5t21.5 -46.5z" />
    <glyph glyph-name="Scaron" unicode="&#x160;" horiz-adv-x="580" 
d="M480 906l-174 -149l-171 149q72 -1 171 -51q91 49 174 51zM541 203q0 -80 -65 -143q-81 -78 -221 -78q-95 0 -186 33l-32 131q107 -84 232 -84q67 0 112.5 31t45.5 77q0 44 -35 75q-30 26 -135.5 74t-145.5 84q-55 50 -55 122q0 85 71.5 136t191.5 51q79 0 161 -23v-120
q-71 69 -167 69q-62 0 -100.5 -27.5t-38.5 -71.5q0 -39 30.5 -65.5t125.5 -70.5q113 -52 154 -85q57 -45 57 -115z" />
    <glyph glyph-name="scaron" unicode="&#x161;" horiz-adv-x="490" 
d="M426 696l-169 -146l-166 146q74 -4 166 -58q88 54 169 58zM447 150q0 -70 -65.5 -117t-162.5 -47q-75 0 -154 25l-31 114q93 -70 196 -70q47 0 80 21t33 51q0 27 -26 48q-22 18 -102 51q-85 36 -114 60q-44 37 -44 91q0 64 57 102.5t151 38.5q65 0 135 -19v-104
q-62 58 -140 58q-43 0 -70 -18t-27 -47q0 -25 23 -42.5t95 -47.5q88 -37 120 -61q46 -34 46 -87z" />
    <glyph glyph-name="brokenbar" unicode="&#xa6;" 
d="M309 343h-96v352h96v-352zM309 -174h-96v334h96v-334z" />
    <glyph glyph-name="Eth" unicode="&#xd0;" horiz-adv-x="743" 
d="M702 355q0 -105 -54.5 -192t-146.5 -128q-78 -35 -279 -35h-170q24 23 29 29t9 18q9 29 9 93v186h-96v69h96v165q0 57 -4 76q-9 40 -43 59h273q156 0 259 -85q118 -97 118 -255zM586 344q0 123 -73.5 202t-210.5 79q-42 0 -97 -12v-218h202v-69h-202v-239q43 -8 78 -8
q131 0 201 51q102 75 102 214z" />
    <glyph glyph-name="eth" unicode="&#xf0;" horiz-adv-x="625" 
d="M585 257q0 -76 -43 -139.5t-116 -92.5q-62 -25 -219 -25h-145q28 23 34 38t6 64v127h-78v63h78v109q0 49 -6 65t-33 38h149q16 0 37 1h25q137 0 219 -63q92 -71 92 -185zM477 249q0 88 -55.5 140t-150.5 52q-30 0 -72 -7v-142h164v-63h-164v-155q28 -5 57 -5q96 0 147 35
q74 51 74 145z" />
    <glyph glyph-name="Yacute" unicode="&#xdd;" horiz-adv-x="638" 
d="M533 837l-288 -86l230 164zM634 695l-259 -391v-180q0 -48 8 -69q10 -25 45 -55h-204q33 23 41 60q4 17 4 75v169l-182 293q-27 43 -44 60.5t-50 37.5l120 4q24 0 33 -7t31 -43l159 -260l133 202q20 30 20 51q0 32 -38 53h183z" />
    <glyph glyph-name="yacute" unicode="&#xfd;" horiz-adv-x="531" 
d="M455 650l-270 -91l213 163zM533 504l-217 -285v-117q0 -48 6 -64t33 -38h-175q27 23 33 38t6 64v117l-147 205q-37 52 -83 79l111 4q19 0 27.5 -6t27.5 -33l124 -176l103 136q15 20 15 32q0 19 -33 44h169z" />
    <glyph glyph-name="Thorn" unicode="&#xde;" horiz-adv-x="577" 
d="M550 372q0 -82 -68.5 -140t-164.5 -58q-40 0 -76 14q89 11 136 51q55 47 55 114q0 61 -41 96t-112 35q-37 0 -74 -9v-351q0 -52 11.5 -78t43.5 -46h-208q34 18 43 59q4 18 4 76v425q0 58 -4 76q-9 41 -43 59h200q-34 -17 -43 -61q-4 -19 -4 -78h66q118 0 172 -25
q48 -22 77.5 -66t29.5 -93z" />
    <glyph glyph-name="thorn" unicode="&#xfe;" horiz-adv-x="487" 
d="M465 263q0 -59 -56 -103.5t-130 -44.5q-40 0 -74 21q65 8 91 21q62 30 62 90q0 87 -119 87q-29 0 -54 -5v-227q0 -48 6 -64t33 -38h-175q28 23 33.5 38t5.5 64v300q0 48 -6 64t-33 38h175q-26 -22 -32.5 -37.5t-6.5 -57.5v-10q45 1 70 1q89 0 140 -29q70 -40 70 -108z
" />
    <glyph glyph-name="minus" unicode="&#x2212;" horiz-adv-x="640" 
d="M551 314h-462v75h462v-75z" />
    <glyph glyph-name="multiply" unicode="&#xd7;" horiz-adv-x="640" 
d="M526 507l-155 -155l152 -152l-51 -51l-152 152l-155 -155l-51 51l155 155l-152 152l51 51l152 -152l155 155z" />
    <glyph glyph-name="onesuperior" unicode="&#xb9;" horiz-adv-x="420" 
d="M299 278h-168q34 19 41.5 32t7.5 52v245h-93q57 20 92.5 46t78.5 80v-371q0 -35 6 -49q8 -18 35 -35z" />
    <glyph glyph-name="twosuperior" unicode="&#xb2;" horiz-adv-x="420" 
d="M393 365l-43 -87h-315l177 239q35 47 35 76q0 23 -18.5 37t-47.5 14q-48 0 -127 -42l47 91q53 12 89 12q63 0 104.5 -27.5t41.5 -69.5q0 -32 -24 -71q-1 -1 -45 -62l-99 -137q47 -6 79 -6q77 0 146 33z" />
    <glyph glyph-name="threesuperior" unicode="&#xb3;" horiz-adv-x="420" 
d="M368 406q0 -63 -59.5 -100.5t-158.5 -37.5q-31 0 -72 5l-38 87q68 -32 130 -32q50 0 82 22.5t32 58.5q0 71 -102 71q-26 0 -57 -8v63q30 -2 34 -2q43 0 69 16t26 43q0 23 -23.5 39t-57.5 16q-46 0 -109 -35l33 79q41 14 89 14q66 0 108 -28.5t42 -72.5q0 -61 -73 -87
q105 -26 105 -111z" />
    <glyph glyph-name="onehalf" unicode="&#xbd;" horiz-adv-x="966" 
d="M919 87l-43 -87h-315l177 239q35 47 35 76q0 23 -18.5 37t-47.5 14q-48 0 -126 -42l46 90q53 13 89 13q64 0 105.5 -27.5t41.5 -69.5q0 -31 -25 -71q-22 -31 -45 -62l-99 -137q47 -6 79 -6q77 0 146 33zM665 695l-341 -695h-63l342 695h62zM280 278h-168q34 19 41.5 32
t7.5 52v245h-93q57 20 92.5 46t78.5 80v-371q0 -35 6 -49q8 -18 35 -35z" />
    <glyph glyph-name="onequarter" unicode="&#xbc;" horiz-adv-x="966" 
d="M923 173l-38 -88h-51v-21q0 -44 39 -64h-156q28 10 37 20t9 36v29h-235l215 332h91v-277q51 3 89 33zM657 695l-341 -695h-63l342 695h62zM272 278h-168q34 19 41.5 32t7.5 52v245h-93q57 20 92.5 46t78.5 80v-371q0 -35 6 -49q8 -18 35 -35zM766 363l-134 -219
q42 -5 98 -5q19 0 33 1z" />
    <glyph glyph-name="threequarters" unicode="&#xbe;" horiz-adv-x="966" 
d="M931 173l-38 -88h-51v-21q0 -44 39 -64h-156q28 10 37 20t9 36v29h-235l215 332h91v-277q51 3 89 33zM684 695l-341 -695h-63l342 695h62zM361 406q0 -63 -59.5 -100.5t-158.5 -37.5q-31 0 -72 5l-38 87q68 -32 130 -32q50 0 82 22.5t32 58.5q0 71 -102 71q-26 0 -57 -8
v63q30 -2 34 -2q43 0 69 16t26 43q0 23 -23.5 39t-57.5 16q-46 0 -109 -35l33 79q41 14 89 14q66 0 108 -28.5t42 -72.5q0 -61 -73 -87q105 -26 105 -111zM774 363l-134 -219q42 -5 98 -5q19 0 33 1z" />
    <glyph glyph-name="Lslash" unicode="&#x141;" horiz-adv-x="552" 
d="M539 140l-56 -140h-432q35 18 44 58q4 19 4 77v139l-73 -52v78l73 49v211q0 57 -4 76q-9 40 -43 59h200q-34 -18 -43 -59q-4 -19 -4 -76v-153l187 131v-75l-187 -130v-247q74 -11 142 -11q57 0 99 14t93 51z" />
    <glyph glyph-name="lslash" unicode="&#x142;" horiz-adv-x="473" 
d="M463 108l-48 -108h-359q27 23 33 38t6 64v87l-59 -36v70l59 34v145q0 48 -6 64t-33 38h175q-27 -22 -33 -38t-6 -64v-97l151 92v-68l-151 -85v-170q58 -7 106 -7q51 0 84 8q30 8 81 33z" />
    <glyph glyph-name="HT" horiz-adv-x="261" 
 />
    <glyph glyph-name="nonmarkingreturn" horiz-adv-x="261" 
 />
    <glyph glyph-name="Zcaron" unicode="&#x17d;" horiz-adv-x="654" 
d="M520 906l-174 -149l-171 149q72 -1 171 -51q91 49 174 51zM638 134l-55 -134h-558l389 609q-77 11 -173 11q-60 0 -88 -7q-33 -9 -84 -39l51 121h467l-386 -606q129 -11 223 -11q113 0 214 56z" />
    <glyph glyph-name="zcaron" unicode="&#x17e;" horiz-adv-x="544" 
d="M454 696l-169 -146l-166 146q74 -4 166 -58q88 54 169 58zM534 108l-52 -108h-467l316 431q-54 6 -131 6q-47 0 -75 -6t-72 -27l48 100h395l-314 -428q95 -7 164 -7q92 0 188 39z" />
    <glyph glyph-name="notequal" unicode="&#x2260;" horiz-adv-x="549" 
d="M501 139h-279l-117 -117l-39 40l77 77h-95v58h148l79 78h-227v58h279l117 117l40 -40l-78 -77h95v-58h-147l-79 -78h226v-58z" />
    <glyph glyph-name="infinity" unicode="&#x221e;" horiz-adv-x="713" 
d="M659 300q0 -75 -34 -127q-40 -59 -111 -59q-93 0 -148 124q-65 -124 -157 -124q-71 0 -115 58q-41 53 -41 126q0 75 35 127q39 59 111 59q91 0 148 -124q63 124 157 124q71 0 115 -58q40 -53 40 -126zM635 303q0 54 -29 88.5t-81 34.5q-77 0 -149 -162q46 -86 142 -86
q53 0 85 36t32 89zM336 334q-47 86 -141 86q-53 0 -85 -36t-32 -89q0 -51 28 -87t78 -36q51 0 95 59q23 32 57 103z" />
    <glyph glyph-name="lessequal" unicode="&#x2264;" horiz-adv-x="549" 
d="M503 127l-456 143v61l456 143v-64l-351 -110l351 -109v-64zM503 0h-457v62h457v-62z" />
    <glyph glyph-name="greaterequal" unicode="&#x2265;" horiz-adv-x="549" 
d="M503 270l-457 -143v64l351 109l-351 110v64l457 -143v-61zM503 0h-457v62h457v-62z" />
    <glyph glyph-name="mu" unicode="&#xb5;" 
d="M516 0h-131v69q-37 -48 -69 -65.5t-81 -17.5q-63 0 -105 45l11 -247h-97v599q0 51 -6 66.5t-34 37.5h72q44 0 63 19v-293q0 -73 26 -105q32 -40 94 -40q55 0 88.5 34.5t33.5 91.5v189q0 51 -6 67t-34 37h74q42 0 61 19v-402q0 -51 6 -66.5t34 -37.5z" />
    <glyph glyph-name="mu" unicode="&#x3bc;" 
d="M516 0h-131v69q-37 -48 -69 -65.5t-81 -17.5q-63 0 -105 45l11 -247h-97v599q0 51 -6 66.5t-34 37.5h72q44 0 63 19v-293q0 -73 26 -105q32 -40 94 -40q55 0 88.5 34.5t33.5 91.5v189q0 51 -6 67t-34 37h74q42 0 61 19v-402q0 -51 6 -66.5t34 -37.5z" />
    <glyph glyph-name="partialdiff" unicode="&#x2202;" horiz-adv-x="494" 
d="M436 367q0 -130 -47 -238q-61 -142 -175 -142q-74 0 -116 59q-36 51 -36 129q0 79 49 140q52 65 129 65q87 0 118 -93q12 45 12 148q0 167 -63 167q-17 0 -50 -35t-56 -35q-37 0 -37 32q0 34 36 54q30 17 66 17q93 0 137 -93q33 -71 33 -175zM341 224q0 125 -85 125
q-65 0 -97 -84q-23 -60 -23 -137q0 -119 84 -119q63 0 96 81q25 61 25 134z" />
    <glyph glyph-name="summation" unicode="&#x2211;" horiz-adv-x="713" 
d="M661 20q-10 -43 -53 -236h-572l398 436l-384 524h550l33 -230h-34q-33 108 -92.5 153t-171.5 45h-142l325 -446l-359 -394h212q109 0 158 25q61 30 97 123h35z" />
    <glyph glyph-name="product" unicode="&#x220f;" horiz-adv-x="823" 
d="M797 -216h-264v32h84v896h-407v-896h84v-32h-264v32h88v896h-88v32h767v-32h-88v-896h88v-32z" />
    <glyph glyph-name="pi" unicode="&#x3c0;" horiz-adv-x="549" 
d="M526 469q0 -51 -23 -70.5t-75 -20.5h-24q-4 -132 -4 -196v-86q6 -63 39 -63q39 0 51 43q7 24 7 75h25q0 -161 -106 -161q-66 0 -87 53q-16 40 -16 151q0 -6 4 184h-137q0 -227 -13 -294q-18 -94 -80 -94q-46 0 -61 48q-9 28 -9 86h24q1 -52 37 -52q45 0 62 75
q14 62 16 231h-22q-77 0 -87 -52h-23q4 74 46 101q34 22 113 22h254q66 0 66 22v1h23v-3z" />
    <glyph glyph-name="integral" unicode="&#x222b;" horiz-adv-x="274" 
d="M364 690q0 -48 -49 -48q-26 0 -43.5 37t-29.5 37q-38 0 -48 -109q-3 -31 -12 -309q-9 -272 -47 -362q-50 -117 -144 -117q-33 0 -57 17.5t-24 49.5q0 47 49 47q26 0 44 -36.5t30 -36.5q36 0 47 109q6 58 9 220q4 169 11 250q11 135 39 201q49 117 144 117q33 0 57 -17.5
t24 -49.5z" />
    <glyph glyph-name="Omega" unicode="&#x3a9;" horiz-adv-x="768" 
d="M718 408q0 -108 -72 -177q-65 -61 -176 -82v-59h123q50 0 67 17.5t21 68.5h23l-10 -176h-252v170q80 16 122 88q36 63 36 150q0 103 -56 170q-59 71 -160 71q-102 0 -161 -71q-55 -66 -55 -170q0 -88 36 -150q41 -72 122 -88v-170h-252l-10 176h23q3 -50 21 -68t67 -18
h123v59q-112 21 -176 82q-72 69 -72 177q0 131 105 204q91 63 229 63t229 -63q105 -73 105 -204z" />
    <glyph glyph-name="Omega" unicode="&#x2126;" horiz-adv-x="768" 
d="M718 408q0 -108 -72 -177q-65 -61 -176 -82v-59h123q50 0 67 17.5t21 68.5h23l-10 -176h-252v170q80 16 122 88q36 63 36 150q0 103 -56 170q-59 71 -160 71q-102 0 -161 -71q-55 -66 -55 -170q0 -88 36 -150q41 -72 122 -88v-170h-252l-10 176h23q3 -50 21 -68t67 -18
h123v59q-112 21 -176 82q-72 69 -72 177q0 131 105 204q91 63 229 63t229 -63q105 -73 105 -204z" />
    <glyph glyph-name="radical" unicode="&#x221a;" horiz-adv-x="549" 
d="M594 764h-57l-290 -784h-32l-156 431l-61 -22l-12 39l138 48l125 -346l252 681h93v-47z" />
    <glyph glyph-name="approxequal" unicode="&#x2248;" horiz-adv-x="549" 
d="M531 297q-81 -54 -146 -54q-34 0 -105.5 23.5t-109.5 23.5q-60 0 -152 -65v69q86 56 157 56q38 0 84 -14q29 -10 88 -28q21 -5 43 -5q54 0 141 63v-69zM531 178q-79 -54 -146 -54q-32 0 -105.5 23.5t-114.5 23.5q-55 0 -147 -65v69q89 57 158 57q35 0 84 -15l81 -25
q26 -8 49 -8q53 0 141 64v-70z" />
    <glyph glyph-name="approxequal" unicode="&#x22f2;" horiz-adv-x="549" 
d="M531 297q-81 -54 -146 -54q-34 0 -105.5 23.5t-109.5 23.5q-60 0 -152 -65v69q86 56 157 56q38 0 84 -14q29 -10 88 -28q21 -5 43 -5q54 0 141 63v-69zM531 178q-79 -54 -146 -54q-32 0 -105.5 23.5t-114.5 23.5q-55 0 -147 -65v69q89 57 158 57q35 0 84 -15l81 -25
q26 -8 49 -8q53 0 141 64v-70z" />
    <glyph glyph-name="Delta" unicode="&#x394;" horiz-adv-x="612" 
d="M595 0h-574l276 672h22zM471 32l-198 491l-201 -491h399z" />
    <glyph glyph-name="Delta" unicode="&#x2206;" horiz-adv-x="612" 
d="M595 0h-574l276 672h22zM471 32l-198 491l-201 -491h399z" />
    <glyph glyph-name="lozenge" unicode="&#x25ca;" horiz-adv-x="494" 
d="M491 289l-244 -522l-244 522l244 518zM435 289l-188 399l-188 -399l188 -403z" />
    <glyph glyph-name="fraction" unicode="&#x2044;" horiz-adv-x="126" 
d="M265 695l-341 -695h-63l342 695h62z" />
    <glyph glyph-name="fi" unicode="&#xf001;" horiz-adv-x="673" 
d="M625 0h-175q27 23 33 38t6 64v300q0 48 -6 64t-33 38h175q-27 -22 -33 -38t-6 -64v-300q0 -48 6 -64t33 -38zM378 419q-43 18 -108 18q-54 0 -85 -4v-126h109q18 0 35 7v-90q-23 16 -73 16h-71v-137q0 -49 6 -65t33 -38h-175q27 23 33 38.5t6 64.5v299q0 48 -6 64t-33 38
h291q22 0 38 7v-92z" />
    <glyph glyph-name="fl" unicode="&#xf002;" horiz-adv-x="868" 
d="M858 108l-49 -108h-359q27 23 33 38t6 64v300q0 48 -6 64t-33 38h175q-27 -22 -33 -38t-6 -64v-328q60 -7 106 -7q52 0 85 8q29 8 81 33zM378 419q-43 18 -108 18q-54 0 -85 -4v-126h109q18 0 35 7v-90q-23 16 -73 16h-71v-137q0 -49 6 -65t33 -38h-175q27 23 33 38.5
t6 64.5v299q0 48 -6 64t-33 38h291q22 0 38 7v-92z" />
    <glyph glyph-name="apple" unicode="&#xf000;" horiz-adv-x="790" 
d="M566 808q0 -52 -2 -62q-8 -42 -34 -68q-30 -30 -68 -53q-7 -4 -56 -9q-3 30 6 52.5t34 67.5q28 35 54 48q38 19 66 24zM733 213q-61 -131 -109 -174q-14 -12 -27 -24q-17 -11 -47 -16q-8 -1 -17 -1q-29 0 -55 12q-43 20 -69 20q-25 0 -69 -20q-27 -13 -53 -13q-9 0 -18 2
q-37 7 -63 30q-60 54 -109 160q-41 89 -41 190q0 23 3 41q20 108 86 160q51 40 132 40q27 0 69 -16t63 -16q22 0 47 11q36 14 42 16q18 5 44 5q81 0 132 -40q14 -11 38 -38q-47 -34 -67 -68q-27 -46 -26 -100q1 -56 33 -98q23 -31 43 -44q19 -9 38 -19z" />
    <glyph glyph-name="dotlessi" unicode="&#x131;" horiz-adv-x="273" 
d="M224 0h-175q28 23 33.5 38t5.5 64v300q0 48 -6 64t-33 38h175q-27 -22 -33 -38t-6 -64v-300q0 -48 6 -64t33 -38z" />
    <glyph glyph-name="breve" unicode="&#x2d8;" 
d="M424 696q-15 -47 -34 -71q-44 -55 -127 -55q-106 0 -147 78q-8 15 -18 48h59q37 -60 102 -60q41 0 62 12t44 48h59z" />
    <glyph glyph-name="dotaccent" unicode="&#x2d9;" 
d="M325 639q0 -27 -19 -46t-45 -19q-27 0 -46 19t-19 46t19 45.5t47 18.5q26 0 44.5 -19t18.5 -45z" />
    <glyph glyph-name="ring" unicode="&#x2da;" 
d="M365 659q0 -43 -30.5 -74t-74.5 -31q-43 0 -73.5 30.5t-30.5 74.5q0 43 31 73.5t75 30.5q42 0 72.5 -31t30.5 -73zM316 658q0 23 -16.5 39t-39.5 16q-22 0 -38 -16.5t-16 -38.5t16.5 -38.5t38.5 -16.5q23 0 39 16t16 39z" />
    <glyph glyph-name="hungarumlaut" unicode="&#x2dd;" 
d="M533 671l-228 -109l164 169zM366 671l-228 -109l164 169z" />
    <glyph glyph-name="ogonek" unicode="&#x2db;" 
d="M482 -104l-51 -61q-20 0 -34 4q-52 15 -52 63q0 57 61 98h39q-33 -46 -33 -71q0 -34 45 -34q16 0 25 1z" />
    <glyph glyph-name="caron" unicode="&#x2c7;" 
d="M428 696l-169 -146l-166 146q74 -4 166 -58q88 54 169 58z" />
    <glyph glyph-name="glyph249" horiz-adv-x="261" 
 />
    <glyph glyph-name="middot" unicode="&#xb7;" horiz-adv-x="257" 
d="M194 272q0 -28 -19 -47t-46 -19q-28 0 -47 19t-19 47q0 27 19.5 46t47.5 19q26 0 45 -19.5t19 -45.5z" />
    <glyph glyph-name="sfthyphen" unicode="&#xad;" horiz-adv-x="393" 
d="M359 318l-57 -76q-14 -19 -45 -19h-126q-58 0 -96 -13l60 75q14 18 46 18h112q68 0 106 15z" />
    </font>
</defs>
</svg>
